<svg width="204" height="582" viewBox="0 0 204 582" fill="none" xmlns="http://www.w3.org/2000/svg">
<g filter="url(#filter0_d_38_1586)">
<path d="M125.485 440.495C134.059 443.332 141.613 447.38 148.083 452.671C154.553 457.962 159.78 464.368 163.701 471.858C167.621 479.348 169.597 487.667 169.597 496.783C169.597 507.907 166.952 518.138 161.661 527.477C158.506 533.023 154.394 537.868 149.358 542.011C143.398 546.888 142.282 555.589 146.808 561.836C151.685 568.594 161.183 569.932 167.717 564.801C174.697 559.287 180.689 552.529 185.63 544.465C193.375 531.876 197.263 516.258 197.263 497.612C197.263 484.289 194.65 471.954 189.454 460.639C184.259 449.324 177.183 439.539 168.227 431.316C159.27 423.092 148.88 416.654 136.991 412C132.369 410.184 127.684 408.749 122.871 407.634C113.692 405.53 104.895 412.447 104.895 421.881V423.762C104.895 430.71 109.803 436.67 116.592 438.105C119.62 438.71 122.584 439.507 125.485 440.495Z" fill="#FFD700" fill-opacity="0.1" shape-rendering="crispEdges"/>
</g>
<g filter="url(#filter1_d_38_1586)">
<path d="M99.7314 567.573V523.748C99.7314 517.469 94.6317 512.369 88.3527 512.369C82.0736 512.369 76.9739 517.469 76.9739 523.748V553.199V567.573C76.9739 573.852 82.0736 578.952 88.3527 578.952C94.6636 578.952 99.7314 573.852 99.7314 567.573Z" fill="#117BFD" fill-opacity="0.1" shape-rendering="crispEdges"/>
</g>
<path d="M56.4794 553.199C56.2881 553.199 56.0969 553.135 55.9694 553.008C46.2162 544.848 39.0766 536.274 34.5506 527.318C29.9927 518.266 27.6978 508.831 27.6978 498.951C27.6978 489.994 29.5784 481.707 33.3075 474.026C37.0367 466.344 42.1045 459.746 48.511 454.169C54.8857 448.591 62.3759 444.224 70.9817 441.005C75.6033 439.284 80.448 438.009 85.4521 437.212C92.9742 436.033 98.552 429.594 98.552 421.977V421.849C98.552 412.224 89.8506 404.956 80.3843 406.678C74.0096 407.825 67.7625 409.61 61.6428 411.969C49.5947 416.622 38.981 423.06 29.8652 431.284C20.7176 439.507 13.4824 449.165 8.09578 460.32C2.7092 471.444 7.62939e-06 483.524 7.62939e-06 496.464C7.62939e-06 517.819 8.47826 536.72 25.4667 553.167H14.2473C7.1396 553.167 1.37054 558.936 1.37054 566.044C1.37054 573.151 7.1396 578.92 14.2473 578.92H56.4794C63.5871 578.92 69.3561 573.151 69.3561 566.044C69.3561 558.968 63.5871 553.199 56.4794 553.199Z" fill="black"/>
<g filter="url(#filter2_d_38_1586)">
<path d="M124.529 234.211C133.007 237.048 140.561 241.096 147.127 246.387C153.693 251.678 159.047 258.18 163.159 265.83C167.271 273.511 169.311 282.276 169.311 292.125C169.311 301.432 167.334 309.878 163.414 317.464C159.494 325.05 154.266 331.52 147.796 336.907C141.326 342.294 133.836 346.437 125.326 349.369C121.246 350.772 117.102 351.824 112.831 352.557C105.341 353.832 99.7951 360.27 99.7951 367.888V367.951C99.7951 377.768 108.783 385.163 118.409 383.187C123.764 382.071 129.087 380.541 134.378 378.533C146.171 374.071 156.689 367.76 166.028 359.633C175.335 351.505 182.889 341.72 188.626 330.309C194.363 318.899 197.263 306.245 197.263 292.38C197.263 278.866 194.554 266.403 189.168 254.993C183.781 243.582 176.514 233.701 167.398 225.414C158.251 217.095 147.764 210.561 135.907 205.844C130.138 203.549 124.274 201.796 118.25 200.617C108.688 198.736 99.8269 206.163 99.8269 215.884C99.8269 223.406 105.214 229.877 112.608 231.183C116.624 231.885 120.576 232.905 124.529 234.211Z" fill="#117BFD" fill-opacity="0.1" shape-rendering="crispEdges"/>
</g>
<path d="M72.894 349.688C64.4795 346.947 56.9255 342.931 50.1684 337.64C43.4113 332.349 37.9928 325.911 33.8812 318.325C29.7695 310.739 27.7297 302.038 27.7297 292.157C27.7297 282.659 29.7058 274.085 33.6262 266.403C37.5466 258.722 42.8057 252.188 49.3716 246.833C55.9374 241.447 63.5233 237.303 72.0972 234.371C75.5395 233.192 79.0455 232.267 82.5516 231.566C89.8187 230.132 95.0459 223.789 95.0459 216.394C95.0459 206.482 85.8664 199.119 76.177 201.286C71.4597 202.338 66.8062 203.741 62.1846 205.494C50.2959 209.956 39.7777 216.299 30.5345 224.522C21.3231 232.745 13.9285 242.562 8.35072 253.973C2.7729 265.383 -4.57764e-05 278.037 -4.57764e-05 291.902C-4.57764e-05 305.225 2.67727 317.592 8.09572 329.034C13.4823 340.445 20.6857 350.358 29.7377 358.74C38.7896 367.123 49.2441 373.657 61.1009 378.31C66.0731 380.255 71.1729 381.816 76.3363 382.932C85.9302 385.036 95.014 377.641 95.014 367.792V367.378C95.014 359.951 89.7231 353.64 82.456 352.206C79.2687 351.537 76.0495 350.708 72.894 349.688Z" fill="black"/>
<g filter="url(#filter3_d_38_1586)">
<path d="M1.4024 151.755C1.4024 160.297 8.31892 167.246 16.8928 167.246H66.8381C75.3802 167.246 82.3285 160.329 82.3285 151.755C82.3285 143.213 75.412 136.265 66.8381 136.265H16.8928C8.31892 136.297 1.4024 143.213 1.4024 151.755Z" fill="#FFD700" fill-opacity="0.1" shape-rendering="crispEdges"/>
</g>
<path d="M195.893 151.755C195.893 143.213 188.976 136.265 180.402 136.265H114.52H102.6C94.0579 136.265 87.1095 143.182 87.1095 151.755C87.1095 160.297 94.026 167.246 102.6 167.246H180.402C188.944 167.246 195.893 160.329 195.893 151.755Z" fill="black"/>
<path d="M1.40243 13.6099V17.1159C1.40243 24.638 7.49024 30.7258 15.0123 30.7258C22.5344 30.7258 28.6222 24.638 28.6222 17.1159V13.6099C28.6222 6.08779 22.5344 0 15.0123 0C7.49024 0 1.40243 6.08779 1.40243 13.6099Z" fill="black"/>
<g filter="url(#filter4_d_38_1586)">
<path d="M195.893 15.3629C195.893 6.88464 189.04 0.0318909 180.562 0.0318909L49.0529 0.0318909C40.5746 0.0318909 33.7218 6.88464 33.7218 15.3629C33.7218 23.8412 40.5746 30.6939 49.0529 30.6939L69.5474 30.6939H87.1414L114.52 30.6939L180.562 30.6939C189.008 30.6939 195.893 23.8412 195.893 15.3629Z" fill="#FFD700" fill-opacity="0.1" shape-rendering="crispEdges"/>
</g>
<g filter="url(#filter5_d_38_1586)">
<path d="M100.847 60.9097C93.2929 60.9097 87.1414 67.0294 87.1414 74.6152V109.963C87.1414 117.517 93.2611 123.668 100.847 123.668C108.401 123.668 114.552 117.548 114.552 109.963V74.6152C114.521 67.0294 108.401 60.9097 100.847 60.9097Z" fill="#117BFD" fill-opacity="0.1" shape-rendering="crispEdges"/>
</g>
<path d="M44.9413 13.2911H49.3079V19.2196C48.6067 19.4427 47.9054 19.602 47.268 19.6977C46.6305 19.7933 45.8974 19.857 45.1325 19.857C43.3476 19.857 41.9452 19.3152 40.989 18.2634C40.0328 17.2116 39.5228 15.7135 39.5228 13.7692C39.5228 11.8569 40.0646 10.3588 41.1802 9.30699C42.2639 8.2233 43.7938 7.68146 45.7062 7.68146C46.9492 7.68146 48.0967 7.90457 49.2122 8.38267L48.5429 10.0082C47.5867 9.56198 46.6305 9.33886 45.6743 9.33886C44.3994 9.33886 43.4113 9.72134 42.6782 10.5182C41.9451 11.315 41.5627 12.3987 41.5627 13.7692C41.5627 15.2035 41.8814 16.3191 42.5508 17.0522C43.2201 17.7853 44.1763 18.1677 45.4194 18.1677C46.0568 18.1677 46.7261 18.104 47.4273 17.9446V14.8848H44.9731V13.2911H44.9413Z" fill="#FFD700"/>
<path d="M56.4794 10.5819C56.8618 10.5819 57.1806 10.6137 57.4356 10.6775L57.2443 12.4624C56.9893 12.3987 56.7025 12.3668 56.4156 12.3668C55.6507 12.3668 55.0451 12.6218 54.567 13.0999C54.0889 13.578 53.8658 14.2473 53.8658 15.0441V19.7295H51.9534V10.7731H53.4514L53.7064 12.3668H53.802C54.0889 11.8249 54.4713 11.4106 54.9494 11.0918C55.4275 10.7731 55.9056 10.5819 56.4794 10.5819Z" fill="#FFD700"/>
<path d="M66.9975 15.2035C66.9975 16.6697 66.615 17.8171 65.8819 18.6139C65.117 19.4426 64.097 19.857 62.7583 19.857C61.9296 19.857 61.1966 19.6657 60.5272 19.2833C59.8898 18.9008 59.3798 18.3589 59.0611 17.6577C58.7105 16.9565 58.5511 16.1278 58.5511 15.2035C58.5511 13.7373 58.9336 12.6218 59.6667 11.7931C60.3997 10.9644 61.4516 10.5819 62.8221 10.5819C64.1289 10.5819 65.1489 10.9962 65.8819 11.8249C66.615 12.6855 66.9975 13.8011 66.9975 15.2035ZM60.4954 15.2035C60.4954 17.2753 61.2603 18.2952 62.7902 18.2952C64.2883 18.2952 65.0532 17.2753 65.0532 15.2035C65.0532 13.1636 64.2883 12.1437 62.7583 12.1437C61.9615 12.1437 61.3878 12.3987 61.0372 12.9405C60.6866 13.4823 60.4954 14.2154 60.4954 15.2035Z" fill="#FFD700"/>
<path d="M77.1332 15.2035C77.1332 16.6697 76.7507 17.8171 76.0176 18.6139C75.2527 19.4426 74.2327 19.857 72.8941 19.857C72.0654 19.857 71.3323 19.6657 70.6629 19.2833C70.0255 18.9008 69.5155 18.3589 69.1968 17.6577C68.8462 16.9565 68.6868 16.1278 68.6868 15.2035C68.6868 13.7373 69.0693 12.6218 69.8024 11.7931C70.5355 10.9644 71.5872 10.5819 72.9578 10.5819C74.2646 10.5819 75.2845 10.9962 76.0176 11.8249C76.7507 12.6855 77.1332 13.8011 77.1332 15.2035ZM70.6311 15.2035C70.6311 17.2753 71.396 18.2952 72.9259 18.2952C74.424 18.2952 75.1889 17.2753 75.1889 15.2035C75.1889 13.1636 74.424 12.1437 72.8941 12.1437C72.0972 12.1437 71.5235 12.3987 71.1729 12.9405C70.8223 13.4823 70.6311 14.2154 70.6311 15.2035Z" fill="#FFD700"/>
<path d="M81.3723 19.6977L77.9619 10.7414H79.9699L81.7867 15.9367C82.1054 16.7973 82.2967 17.5304 82.3604 18.0722H82.4242C82.4879 17.6897 82.6473 16.9885 82.9979 15.9367L84.8147 10.7414H86.8227L83.4122 19.6977H81.3723Z" fill="#FFD700"/>
<path d="M92.0817 19.857C90.6793 19.857 89.5956 19.4427 88.8307 18.6459C88.0657 17.849 87.6513 16.7016 87.6513 15.2992C87.6513 13.833 88.002 12.6856 88.735 11.8569C89.4681 11.0282 90.4562 10.6138 91.7311 10.6138C92.9104 10.6138 93.8348 10.9644 94.536 11.6975C95.2053 12.4306 95.5559 13.3868 95.5559 14.6617V15.6816H89.6275C89.6594 16.5422 89.8825 17.2116 90.3287 17.6897C90.7749 18.1678 91.3805 18.3909 92.2092 18.3909C92.751 18.3909 93.2292 18.3271 93.6754 18.2315C94.1216 18.1359 94.6316 17.9765 95.1415 17.7215V19.2514C94.6634 19.4746 94.2172 19.6339 93.7391 19.7295C93.261 19.8252 92.7192 19.857 92.0817 19.857ZM91.763 12.0162C91.1574 12.0162 90.6793 12.2075 90.2968 12.5899C89.9143 12.9724 89.7231 13.5461 89.6593 14.2792H93.7072C93.7072 13.5461 93.516 12.9724 93.1654 12.5899C92.8148 12.2075 92.3367 12.0162 91.763 12.0162Z" fill="#FFD700"/>
<path d="M111.875 13.6737C111.875 15.618 111.333 17.116 110.249 18.1678C109.166 19.2196 107.604 19.7296 105.564 19.7296H102.249V7.90463L105.915 7.90463C107.795 7.90463 109.261 8.41461 110.313 9.43455C111.333 10.3907 111.875 11.825 111.875 13.6737ZM109.835 13.7374C109.835 10.9007 108.496 9.49829 105.851 9.49829H104.162V18.0722H105.564C108.401 18.0722 109.835 16.6379 109.835 13.7374Z" fill="#FFD700"/>
<path d="M118.122 19.857C116.72 19.857 115.636 19.4427 114.871 18.6459C114.106 17.849 113.692 16.7016 113.692 15.2992C113.692 13.833 114.042 12.6856 114.775 11.8569C115.509 11.0282 116.497 10.6138 117.772 10.6138C118.951 10.6138 119.875 10.9644 120.576 11.6975C121.246 12.4306 121.596 13.3868 121.596 14.6617V15.6816H115.636C115.668 16.5422 115.891 17.2116 116.337 17.6897C116.783 18.1678 117.389 18.3909 118.218 18.3909C118.76 18.3909 119.238 18.3271 119.684 18.2315C120.13 18.1359 120.64 17.9765 121.15 17.7215V19.2514C120.672 19.4746 120.226 19.6339 119.748 19.7295C119.27 19.8252 118.728 19.857 118.122 19.857ZM117.772 12.0162C117.166 12.0162 116.688 12.2075 116.305 12.5899C115.923 12.9724 115.732 13.5461 115.668 14.2792H119.716C119.716 13.5461 119.525 12.9724 119.174 12.5899C118.855 12.2075 118.377 12.0162 117.772 12.0162Z" fill="#FFD700"/>
<path d="M125.804 19.6977L122.393 10.7414H124.401L126.218 15.9367C126.537 16.7973 126.728 17.5304 126.792 18.0722H126.855C126.919 17.6897 127.079 16.9885 127.429 15.9367L129.246 10.7414H131.254L127.844 19.6977H125.804Z" fill="#FFD700"/>
<path d="M136.545 19.857C135.142 19.857 134.059 19.4427 133.294 18.6459C132.529 17.849 132.115 16.7016 132.115 15.2992C132.115 13.833 132.465 12.6856 133.198 11.8569C133.931 11.0282 134.919 10.6138 136.194 10.6138C137.374 10.6138 138.298 10.9644 138.999 11.6975C139.7 12.4306 140.019 13.3868 140.019 14.6617V15.6816H134.059C134.091 16.5422 134.314 17.2116 134.76 17.6897C135.206 18.1678 135.812 18.3909 136.641 18.3909C137.182 18.3909 137.66 18.3271 138.107 18.2315C138.553 18.1359 139.063 17.9765 139.573 17.7215V19.2514C139.095 19.4746 138.649 19.6339 138.17 19.7295C137.692 19.8252 137.151 19.857 136.545 19.857ZM136.194 12.0162C135.589 12.0162 135.111 12.2075 134.728 12.5899C134.346 12.9724 134.154 13.5461 134.091 14.2792H138.139C138.139 13.5461 137.947 12.9724 137.597 12.5899C137.246 12.2075 136.8 12.0162 136.194 12.0162Z" fill="#FFD700"/>
<path d="M144.067 19.6977H142.155V7.10773H144.067V19.6977Z" fill="#FFD700"/>
<path d="M154.744 15.2035C154.744 16.6697 154.362 17.8171 153.629 18.6139C152.896 19.4108 151.844 19.857 150.505 19.857C149.677 19.857 148.944 19.6657 148.274 19.2833C147.605 18.9008 147.127 18.3589 146.808 17.6577C146.489 16.9565 146.298 16.1278 146.298 15.2035C146.298 13.7373 146.681 12.6218 147.414 11.7931C148.147 10.9644 149.199 10.5819 150.569 10.5819C151.876 10.5819 152.896 10.9962 153.629 11.8249C154.362 12.6536 154.744 13.8011 154.744 15.2035ZM148.21 15.2035C148.21 17.2753 148.975 18.2952 150.505 18.2952C152.003 18.2952 152.768 17.2753 152.768 15.2035C152.768 13.1636 152.003 12.1437 150.473 12.1437C149.677 12.1437 149.103 12.3987 148.752 12.9405C148.402 13.4823 148.21 14.2154 148.21 15.2035Z" fill="#FFD700"/>
<path d="M161.47 19.857C160.322 19.857 159.462 19.4426 158.824 18.6458H158.697C158.761 19.4108 158.824 19.857 158.824 20.0164V23.6818H156.912V10.7412H158.442C158.474 10.9006 158.569 11.315 158.697 11.9524H158.792C159.398 11.06 160.29 10.5819 161.47 10.5819C162.585 10.5819 163.446 10.9962 164.083 11.7931C164.721 12.5899 165.008 13.7373 165.008 15.2035C165.008 16.6697 164.689 17.8171 164.051 18.6139C163.414 19.4108 162.585 19.857 161.47 19.857ZM160.992 12.1437C160.227 12.1437 159.685 12.3668 159.334 12.813C158.984 13.2592 158.824 13.9604 158.824 14.9485V15.2354C158.824 16.3191 158.984 17.1159 159.334 17.594C159.685 18.0721 160.259 18.3271 161.024 18.3271C161.693 18.3271 162.203 18.0721 162.553 17.5302C162.904 16.9884 163.095 16.2234 163.095 15.2354C163.095 14.2473 162.904 13.4823 162.553 12.9724C162.203 12.4624 161.693 12.1437 160.992 12.1437Z" fill="#FFD700"/>
<path d="M171.159 19.857C169.757 19.857 168.673 19.4427 167.908 18.6459C167.143 17.849 166.729 16.7016 166.729 15.2992C166.729 13.833 167.079 12.6856 167.812 11.8569C168.546 11.0282 169.534 10.6138 170.809 10.6138C171.988 10.6138 172.912 10.9644 173.613 11.6975C174.315 12.4306 174.633 13.3868 174.633 14.6617V15.6816H168.673C168.705 16.5422 168.928 17.2116 169.374 17.6897C169.821 18.1678 170.426 18.3909 171.255 18.3909C171.797 18.3909 172.275 18.3271 172.721 18.2315C173.167 18.1359 173.677 17.9765 174.187 17.7215V19.2514C173.709 19.4746 173.263 19.6339 172.785 19.7295C172.307 19.8252 171.765 19.857 171.159 19.857ZM170.809 12.0162C170.203 12.0162 169.725 12.2075 169.342 12.5899C168.96 12.9724 168.769 13.5461 168.705 14.2792H172.753C172.753 13.5461 172.562 12.9724 172.211 12.5899C171.86 12.2075 171.414 12.0162 170.809 12.0162Z" fill="#FFD700"/>
<path d="M181.327 10.5819C181.709 10.5819 182.028 10.6137 182.283 10.6775L182.092 12.4624C181.837 12.3987 181.55 12.3668 181.263 12.3668C180.498 12.3668 179.892 12.6218 179.414 13.0999C178.936 13.578 178.713 14.2473 178.713 15.0441V19.7295H176.801V10.7731H178.299L178.554 12.3668H178.649C178.936 11.8249 179.319 11.4106 179.797 11.0918C180.275 10.7731 180.785 10.5819 181.327 10.5819Z" fill="#FFD700"/>
<path d="M189.964 17.1477C189.964 18.0082 189.646 18.6776 189.008 19.1557C188.371 19.6338 187.447 19.8569 186.267 19.8569C185.088 19.8569 184.132 19.6656 183.399 19.315V17.6576C184.45 18.1357 185.438 18.3907 186.331 18.3907C187.51 18.3907 188.084 18.0401 188.084 17.3389C188.084 17.1158 188.02 16.9245 187.893 16.7652C187.765 16.6058 187.542 16.4464 187.255 16.2871C186.968 16.1277 186.554 15.9365 186.012 15.7452C184.992 15.3309 184.291 14.9484 183.909 14.534C183.526 14.1197 183.367 13.6097 183.367 12.9723C183.367 12.2073 183.685 11.6017 184.291 11.1874C184.897 10.773 185.757 10.5499 186.809 10.5499C187.861 10.5499 188.849 10.773 189.805 11.1874L189.2 12.6217C188.243 12.2073 187.415 12.0161 186.777 12.0161C185.789 12.0161 185.279 12.3029 185.279 12.8766C185.279 13.1635 185.407 13.3866 185.662 13.5779C185.917 13.7691 186.49 14.0241 187.383 14.3747C188.116 14.6615 188.658 14.9165 189.008 15.1715C189.359 15.4265 189.582 15.6815 189.741 16.0002C189.901 16.319 189.964 16.7333 189.964 17.1477Z" fill="#FFD700"/>
<path d="M101.357 74.2327V78.5993H95.4285C95.2054 77.8981 95.046 77.1969 94.9504 76.5594C94.8548 75.922 94.791 75.1889 94.791 74.4239C94.791 72.639 95.3329 71.2366 96.3847 70.2804C97.4365 69.3242 98.9345 68.8142 100.879 68.8142C102.791 68.8142 104.289 69.3561 105.341 70.4716C106.425 71.5553 106.967 73.0852 106.967 74.9976C106.967 76.2407 106.743 77.3881 106.265 78.5037L104.64 77.8344C105.086 76.8782 105.309 75.922 105.309 74.9658C105.309 73.6908 104.927 72.7028 104.13 71.9697C103.333 71.2366 102.249 70.8541 100.879 70.8541C99.4445 70.8541 98.3289 71.1728 97.5958 71.8422C96.8309 72.5115 96.4803 73.4677 96.4803 74.7108C96.4803 75.3482 96.544 76.0176 96.7034 76.7188H99.7632V74.2645H101.357V74.2327Z" fill="#117BFD"/>
<path d="M98.5839 80.4479H100.209V84.6233H98.5839V80.4479Z" fill="#117BFD"/>
<path d="M105.277 91.7949C105.277 90.6793 104.895 89.8187 104.098 89.1813C103.301 88.5438 102.217 88.2251 100.847 88.2251C99.3808 88.2251 98.2971 88.5438 97.564 89.1494C96.8309 89.755 96.4484 90.6474 96.4484 91.7949C96.4484 92.3048 96.5122 92.7829 96.6078 93.261C96.7034 93.7391 96.8309 94.2172 96.9903 94.7272H95.3329C94.9823 93.8029 94.791 92.7511 94.791 91.5717C94.791 89.8506 95.301 88.5119 96.3528 87.5876C97.4046 86.6633 98.9027 86.1852 100.847 86.1852C102.09 86.1852 103.142 86.4083 104.066 86.8545C104.99 87.3007 105.692 87.9701 106.202 88.7988C106.68 89.6594 106.935 90.6474 106.935 91.7949C106.935 93.006 106.68 94.1216 106.17 95.1415L104.544 94.4403C104.735 94.026 104.895 93.6116 105.054 93.1654C105.214 92.7192 105.277 92.273 105.277 91.7949Z" fill="#117BFD"/>
<path d="M104.066 101.612C104.066 101.994 104.034 102.313 103.971 102.568L102.186 102.377C102.249 102.122 102.281 101.835 102.281 101.548C102.281 100.783 102.026 100.177 101.548 99.6993C101.038 99.2212 100.401 98.9981 99.6039 98.9981H94.9185V97.0857H103.875V98.5838L102.281 98.8388V98.9344C102.823 99.2212 103.237 99.6037 103.556 100.082C103.875 100.56 104.066 101.038 104.066 101.612Z" fill="#117BFD"/>
<path d="M106.265 104.098C106.616 104.098 106.871 104.194 107.062 104.385C107.253 104.576 107.349 104.831 107.349 105.182C107.349 105.5 107.253 105.787 107.062 105.978C106.871 106.17 106.616 106.265 106.265 106.265C105.947 106.265 105.692 106.17 105.5 105.978C105.309 105.787 105.214 105.532 105.214 105.182C105.214 104.831 105.309 104.576 105.5 104.385C105.692 104.194 105.947 104.098 106.265 104.098ZM94.9504 106.106V104.194H103.907V106.106H94.9504Z" fill="#117BFD"/>
<path d="M104.066 113.405C104.066 114.52 103.652 115.381 102.855 116.018C102.058 116.656 100.911 116.943 99.4445 116.943C97.9783 116.943 96.8309 116.624 96.0022 115.987C95.1735 115.349 94.791 114.489 94.791 113.341C94.791 112.194 95.2053 111.333 96.0022 110.696V110.568L94.9504 110.218V108.783H107.54V110.696H104.544C104.321 110.696 104.002 110.696 103.556 110.664C103.11 110.632 102.855 110.632 102.727 110.6V110.696C103.62 111.333 104.066 112.226 104.066 113.405ZM102.504 112.895C102.504 112.13 102.281 111.588 101.835 111.237C101.389 110.887 100.624 110.728 99.572 110.728H99.4445C98.3608 110.728 97.564 110.887 97.0859 111.237C96.6078 111.588 96.3528 112.162 96.3528 112.927C96.3528 113.596 96.6078 114.106 97.1496 114.457C97.6914 114.807 98.4564 114.967 99.4764 114.967C101.484 114.999 102.504 114.297 102.504 112.895Z" fill="#117BFD"/>
<path d="M15.9367 149.917H20.3033V155.845C19.6021 156.069 18.9008 156.228 18.2634 156.323C17.6259 156.419 16.8928 156.483 16.1279 156.483C14.343 156.483 12.9406 155.941 11.9844 154.889C11.0282 153.837 10.5182 152.339 10.5182 150.395C10.5182 148.483 11.06 146.985 12.1756 145.933C13.2593 144.849 14.7892 144.307 16.7016 144.307C17.9446 144.307 19.0921 144.53 20.2076 145.008L19.5383 146.634C18.5821 146.188 17.6259 145.965 16.6697 145.965C15.3948 145.965 14.4067 146.347 13.6736 147.144C12.9405 147.941 12.5581 149.025 12.5581 150.395C12.5581 151.829 12.8768 152.945 13.5462 153.678C14.2155 154.411 15.1717 154.794 16.4148 154.794C17.0522 154.794 17.7215 154.73 18.4227 154.57V151.511H15.9685V149.917H15.9367Z" fill="#FFD700"/>
<path d="M22.1519 152.69V151.065H26.3273V152.69H22.1519Z" fill="#FFD700"/>
<path d="M32.5426 156.323H30.5983V146.156H27.1241V144.498H36.0168V146.156H32.5426V156.323Z" fill="#FFD700"/>
<path d="M37.5148 145.008C37.5148 144.658 37.6104 144.403 37.8017 144.212C37.9929 144.02 38.2479 143.925 38.5985 143.925C38.9172 143.925 39.2041 144.02 39.3953 144.212C39.5866 144.403 39.6822 144.658 39.6822 145.008C39.6822 145.327 39.5866 145.582 39.3953 145.773C39.2041 145.965 38.9491 146.06 38.5985 146.06C38.2479 146.06 37.9929 145.965 37.8017 145.773C37.6104 145.582 37.5148 145.327 37.5148 145.008ZM39.5228 156.323H37.6104V147.367H39.5228V156.323Z" fill="#FFD700"/>
<path d="M45.8656 156.483C44.5269 156.483 43.4751 156.1 42.7739 155.304C42.0727 154.507 41.722 153.391 41.722 151.893C41.722 150.395 42.1045 149.216 42.8376 148.419C43.5707 147.622 44.6225 147.208 46.0249 147.208C46.9811 147.208 47.8098 147.367 48.5748 147.75L48.0011 149.28C47.2043 148.961 46.5349 148.801 46.0249 148.801C44.4631 148.801 43.6982 149.821 43.6982 151.893C43.6982 152.881 43.8894 153.646 44.2719 154.156C44.6544 154.666 45.2281 154.921 45.9612 154.921C46.8218 154.921 47.6186 154.698 48.3517 154.284V155.941C48.0011 156.132 47.6505 156.292 47.268 156.355C46.8855 156.419 46.4074 156.483 45.8656 156.483Z" fill="#FFD700"/>
<path d="M52.304 151.606L53.3877 150.268L56.0969 147.399H58.2961L54.6945 151.256L58.5193 156.355H56.2881L53.4195 152.435L52.3677 153.296V156.355H50.4872V143.765H52.3677V149.917L52.2721 151.638H52.304V151.606Z" fill="#FFD700"/>
<path d="M63.8421 156.483C62.4397 156.483 61.356 156.069 60.591 155.272C59.8261 154.475 59.4117 153.327 59.4117 151.925C59.4117 150.459 59.7623 149.311 60.4954 148.483C61.2285 147.654 62.2166 147.24 63.4915 147.24C64.6708 147.24 65.5951 147.59 66.2963 148.323C66.9657 149.056 67.3163 150.013 67.3163 151.288V152.308H61.356C61.3879 153.168 61.611 153.837 62.0572 154.316C62.5034 154.794 63.109 155.017 63.9377 155.017C64.4796 155.017 64.9577 154.953 65.4039 154.857C65.8501 154.762 66.3601 154.602 66.87 154.347V155.877C66.3919 156.1 65.9457 156.26 65.4676 156.355C64.9895 156.451 64.4477 156.483 63.8421 156.483ZM63.4915 148.642C62.8859 148.642 62.4078 148.833 62.0253 149.216C61.6428 149.598 61.4516 150.172 61.3879 150.905H65.4357C65.4357 150.172 65.2445 149.598 64.8939 149.216C64.5752 148.833 64.0971 148.642 63.4915 148.642Z" fill="#FFD700"/>
<path d="M72.8303 154.953C73.3084 154.953 73.7547 154.889 74.2328 154.73V156.164C74.0096 156.26 73.7546 156.323 73.404 156.387C73.0853 156.451 72.7347 156.483 72.3841 156.483C70.5673 156.483 69.6749 155.527 69.6749 153.646V148.833H68.4637V148.004L69.7705 147.303L70.408 145.423H71.5873V147.399H74.1371V148.833H71.5873V153.614C71.5873 154.06 71.7148 154.411 71.9379 154.634C72.161 154.857 72.4479 154.953 72.8303 154.953Z" fill="#FFD700"/>
<path d="M129.565 221.048L133.708 222.418L131.86 228.06C131.095 228.06 130.425 227.996 129.756 227.901C129.118 227.773 128.417 227.614 127.684 227.391C125.995 226.817 124.847 225.893 124.242 224.586C123.636 223.279 123.668 221.717 124.242 219.869C124.847 218.052 125.836 216.809 127.206 216.139C128.577 215.47 130.17 215.406 132.019 216.012C133.198 216.394 134.218 217 135.143 217.797L133.995 219.104C133.23 218.371 132.37 217.861 131.477 217.574C130.266 217.191 129.214 217.255 128.258 217.765C127.302 218.275 126.632 219.199 126.186 220.506C125.74 221.877 125.708 223.024 126.091 223.948C126.473 224.873 127.27 225.51 128.449 225.924C129.055 226.116 129.692 226.243 130.425 226.339L131.381 223.438L129.055 222.673L129.565 221.048Z" fill="#117BFD"/>
<path d="M141.708 223.056C142.059 223.215 142.346 223.375 142.537 223.534L141.645 225.064C141.422 224.905 141.198 224.745 140.912 224.618C140.21 224.299 139.541 224.267 138.935 224.522C138.298 224.777 137.82 225.255 137.501 225.988L135.589 230.259L133.868 229.462L137.565 221.303L138.935 221.909L138.521 223.438L138.617 223.47C139.095 223.12 139.637 222.865 140.21 222.801C140.688 222.737 141.23 222.833 141.708 223.056Z" fill="#117BFD"/>
<path d="M149.199 232.427C148.466 233.702 147.573 234.498 146.521 234.817C145.469 235.168 144.354 234.977 143.206 234.307C142.473 233.893 141.932 233.351 141.581 232.714C141.198 232.076 141.071 231.343 141.103 230.578C141.167 229.781 141.422 228.984 141.868 228.188C142.601 226.944 143.493 226.148 144.545 225.797C145.597 225.478 146.712 225.638 147.892 226.307C149.007 226.944 149.709 227.837 149.932 228.921C150.123 230.036 149.9 231.215 149.199 232.427ZM143.557 229.176C142.537 230.96 142.665 232.235 144.003 233C145.31 233.765 146.489 233.223 147.509 231.439C148.529 229.654 148.37 228.411 147.063 227.646C146.362 227.231 145.724 227.199 145.151 227.454C144.577 227.741 144.035 228.315 143.557 229.176Z" fill="#117BFD"/>
<path d="M157.518 238.546C156.625 239.726 155.669 240.395 154.553 240.618C153.47 240.809 152.386 240.522 151.302 239.726C150.633 239.216 150.155 238.642 149.868 237.941C149.581 237.239 149.517 236.538 149.645 235.741C149.804 234.976 150.155 234.211 150.697 233.478C151.557 232.331 152.545 231.63 153.629 231.438C154.713 231.247 155.796 231.534 156.88 232.363C157.9 233.128 158.474 234.084 158.601 235.2C158.729 236.283 158.346 237.399 157.518 238.546ZM152.29 234.626C151.047 236.283 151.047 237.558 152.258 238.482C153.47 239.375 154.681 239.024 155.924 237.367C157.167 235.741 157.167 234.466 155.956 233.542C155.318 233.064 154.681 232.937 154.107 233.128C153.501 233.319 152.896 233.829 152.29 234.626Z" fill="#117BFD"/>
<path d="M157.645 244.793L161.374 235.965L162.84 237.367L160.545 242.371C160.163 243.232 159.812 243.869 159.494 244.283L159.526 244.315C159.844 244.06 160.45 243.678 161.406 243.168L166.315 240.682L167.781 242.084L159.111 246.196L157.645 244.793Z" fill="#117BFD"/>
<path d="M164.625 252.475C163.733 251.391 163.382 250.307 163.51 249.192C163.637 248.076 164.243 247.056 165.358 246.164C166.474 245.24 167.621 244.793 168.705 244.825C169.821 244.857 170.777 245.367 171.574 246.355C172.307 247.279 172.625 248.204 172.53 249.192C172.402 250.18 171.86 251.072 170.904 251.869L170.107 252.507L166.283 247.885C165.613 248.459 165.263 249.064 165.167 249.702C165.071 250.339 165.295 250.977 165.805 251.582C166.155 251.997 166.474 252.347 166.856 252.634C167.207 252.921 167.653 253.208 168.163 253.463L166.952 254.451C166.474 254.228 166.06 253.973 165.709 253.654C165.358 253.335 165.008 252.953 164.625 252.475ZM170.458 247.248C170.076 246.769 169.629 246.514 169.087 246.483C168.546 246.451 168.004 246.642 167.366 247.024L169.948 250.18C170.522 249.702 170.841 249.224 170.904 248.714C171 248.204 170.84 247.726 170.458 247.248Z" fill="#117BFD"/>
<path d="M170.267 260.316L180.53 254.387L181.486 256.077L171.223 262.005L170.267 260.316Z" fill="#117BFD"/>
<path d="M175.685 271.439L174.92 269.686L179.956 267.487C180.594 267.2 181.008 266.882 181.199 266.499C181.391 266.117 181.39 265.639 181.136 265.097C180.817 264.364 180.371 263.917 179.797 263.758C179.223 263.599 178.394 263.758 177.374 264.204L173.295 265.989L172.53 264.236L180.785 260.666L181.391 262.037L180.434 262.738L180.466 262.834C180.976 262.897 181.422 263.121 181.837 263.503C182.251 263.854 182.57 264.332 182.825 264.874C183.685 266.85 183.112 268.252 181.104 269.145L175.685 271.439Z" fill="#117BFD"/>
<path d="M178.554 276.475C178.681 276.922 178.873 277.336 179.159 277.75L177.789 278.133C177.629 277.942 177.502 277.718 177.343 277.4C177.183 277.081 177.056 276.762 176.96 276.443C176.45 274.722 177.12 273.575 178.968 273.065L183.622 271.758L183.271 270.579L184.068 270.356L185.088 271.439L187.096 271.535L187.415 272.651L185.502 273.192L186.203 275.647L184.833 276.029L184.132 273.575L179.51 274.882C179.064 275.009 178.777 275.2 178.618 275.487C178.458 275.774 178.458 276.093 178.554 276.475Z" fill="#117BFD"/>
<path d="M178.394 283.456C178.171 282.085 178.426 280.938 179.096 280.045C179.765 279.153 180.817 278.579 182.219 278.388C183.654 278.165 184.865 278.356 185.789 278.93C186.713 279.535 187.287 280.46 187.478 281.703C187.67 282.882 187.446 283.838 186.841 284.635C186.235 285.432 185.311 285.91 184.068 286.101L183.048 286.26L182.155 280.364C181.295 280.523 180.689 280.842 180.275 281.352C179.893 281.862 179.733 282.499 179.861 283.296C179.956 283.806 180.052 284.284 180.243 284.731C180.402 285.177 180.657 285.623 180.944 286.101L179.414 286.324C179.128 285.91 178.904 285.464 178.745 285.017C178.586 284.571 178.49 284.061 178.394 283.456ZM186.108 281.926C186.012 281.32 185.757 280.874 185.311 280.587C184.865 280.3 184.291 280.141 183.558 280.205L184.164 284.221C184.897 284.093 185.407 283.838 185.757 283.424C186.108 283.009 186.172 282.531 186.108 281.926Z" fill="#117BFD"/>
<path d="M188.339 293.018C188.339 293.4 188.339 293.719 188.275 293.974L186.49 293.814C186.554 293.528 186.586 293.273 186.554 292.986C186.522 292.221 186.267 291.615 185.757 291.137C185.247 290.691 184.61 290.468 183.813 290.468L179.128 290.563L179.096 288.651L188.052 288.46L188.084 289.958L186.522 290.245V290.34C187.064 290.627 187.478 291.01 187.829 291.488C188.148 291.966 188.339 292.476 188.339 293.018Z" fill="#117BFD"/>
<path d="M178.299 303.249L178.522 301.336L183.972 301.974C184.674 302.069 185.183 301.974 185.566 301.751C185.948 301.528 186.172 301.081 186.235 300.508C186.331 299.711 186.172 299.105 185.725 298.659C185.311 298.245 184.514 297.958 183.43 297.83L179 297.32L179.223 295.44L188.116 296.492L187.956 297.958L186.745 298.085V298.181C187.128 298.5 187.415 298.914 187.606 299.424C187.765 299.934 187.829 300.508 187.765 301.113C187.51 303.249 186.299 304.173 184.132 303.918L178.299 303.249Z" fill="#117BFD"/>
<path d="M176.609 309.145C176.992 307.807 177.661 306.882 178.681 306.341C179.669 305.799 180.849 305.735 182.219 306.117C183.622 306.5 184.642 307.169 185.247 308.094C185.853 309.018 185.98 310.102 185.63 311.313C185.311 312.46 184.705 313.257 183.845 313.703C182.984 314.181 181.932 314.245 180.721 313.895L179.733 313.608L181.359 307.87C180.53 307.647 179.797 307.711 179.255 307.998C178.713 308.285 178.299 308.827 178.076 309.624C177.948 310.133 177.853 310.612 177.821 311.09C177.789 311.568 177.821 312.078 177.916 312.651L176.418 312.237C176.323 311.727 176.323 311.249 176.354 310.739C176.386 310.229 176.45 309.719 176.609 309.145ZM184.259 310.93C184.418 310.357 184.355 309.815 184.1 309.369C183.845 308.922 183.335 308.54 182.665 308.285L181.55 312.205C182.251 312.397 182.857 312.365 183.303 312.142C183.781 311.918 184.1 311.504 184.259 310.93Z" fill="#117BFD"/>
<path d="M175.08 317.815C174.888 318.229 174.793 318.707 174.729 319.185L173.422 318.644C173.422 318.421 173.454 318.134 173.518 317.815C173.582 317.496 173.709 317.146 173.837 316.827C174.538 315.169 175.749 314.691 177.502 315.424L181.964 317.305L182.442 316.189L183.207 316.508L183.335 317.974L184.833 319.313L184.387 320.397L182.538 319.632L181.55 321.99L180.211 321.417L181.199 319.058L176.769 317.209C176.355 317.018 176.004 317.018 175.685 317.146C175.367 317.273 175.239 317.464 175.08 317.815Z" fill="#117BFD"/>
<path d="M170.267 335.027C168.641 333.943 167.717 332.636 167.462 331.17C167.207 329.704 167.653 328.11 168.801 326.421L170.649 323.68L180.434 330.341L178.394 333.369C177.343 334.931 176.1 335.855 174.665 336.142C173.263 336.429 171.797 336.046 170.267 335.027ZM171.35 333.305C173.709 334.899 175.621 334.612 177.088 332.413L178.044 331.042L170.936 326.23L170.171 327.377C168.578 329.672 168.96 331.68 171.35 333.305Z" fill="#117BFD"/>
<path d="M161.215 335.823C162.171 334.803 163.191 334.262 164.338 334.262C165.454 334.23 166.569 334.708 167.589 335.664C168.673 336.652 169.247 337.704 169.374 338.819C169.502 339.935 169.119 340.955 168.259 341.879C167.462 342.74 166.569 343.186 165.581 343.218C164.593 343.25 163.637 342.804 162.713 341.975L161.948 341.274L165.996 336.875C165.326 336.301 164.689 336.015 164.052 336.046C163.414 336.078 162.808 336.365 162.267 336.939C161.916 337.321 161.597 337.736 161.374 338.118C161.151 338.533 160.928 338.979 160.737 339.521L159.589 338.469C159.749 337.991 159.94 337.513 160.195 337.13C160.45 336.684 160.8 336.27 161.215 335.823ZM167.207 340.859C167.621 340.413 167.813 339.935 167.781 339.393C167.749 338.851 167.494 338.341 166.984 337.768L164.243 340.764C164.785 341.242 165.326 341.497 165.836 341.497C166.346 341.529 166.793 341.306 167.207 340.859Z" fill="#117BFD"/>
<path d="M154.744 341.943C155.764 341.051 156.816 340.7 157.868 340.827C158.92 340.955 159.94 341.592 160.896 342.708C161.884 343.855 162.362 344.971 162.33 346.055C162.298 347.138 161.757 348.158 160.705 349.051C160.004 349.656 159.239 350.103 158.442 350.326L157.868 348.796C158.697 348.509 159.27 348.19 159.685 347.84C160.864 346.82 160.769 345.545 159.43 343.983C158.761 343.218 158.123 342.772 157.517 342.644C156.88 342.517 156.306 342.708 155.733 343.186C155.095 343.728 154.617 344.429 154.33 345.226L153.246 343.983C153.374 343.6 153.565 343.25 153.788 342.963C154.011 342.644 154.33 342.294 154.744 341.943Z" fill="#117BFD"/>
<path d="M147.541 353.003C146.713 351.792 146.394 350.644 146.553 349.529C146.712 348.413 147.35 347.489 148.434 346.756C149.135 346.278 149.836 346.023 150.569 345.959C151.302 345.895 152.035 346.087 152.705 346.469C153.374 346.852 153.98 347.425 154.521 348.222C155.35 349.433 155.669 350.581 155.51 351.664C155.35 352.748 154.713 353.672 153.597 354.437C152.513 355.17 151.462 355.394 150.346 355.139C149.294 354.884 148.338 354.15 147.541 353.003ZM152.928 349.306C151.748 347.585 150.537 347.17 149.294 348.031C148.051 348.891 148.019 350.166 149.167 351.856C150.314 353.545 151.525 353.959 152.768 353.099C153.438 352.652 153.756 352.111 153.756 351.473C153.756 350.836 153.47 350.134 152.928 349.306Z" fill="#117BFD"/>
<path d="M140.657 351.441C141.645 350.931 142.601 350.899 143.525 351.314C144.449 351.728 145.246 352.621 145.916 353.896C146.585 355.202 146.84 356.35 146.649 357.37C146.458 358.39 145.884 359.155 144.864 359.665C143.812 360.206 142.824 360.238 141.868 359.76L141.772 359.792C142.155 360.334 142.41 360.748 142.601 361.067L144.099 363.967L142.41 364.86L136.609 353.672L137.915 352.971L138.744 353.864L138.808 353.832C139.031 352.812 139.605 351.983 140.657 351.441ZM140.912 353.035C140.21 353.386 139.828 353.864 139.7 354.406C139.573 354.947 139.764 355.68 140.21 356.573L140.338 356.796C140.848 357.784 141.39 358.422 141.932 358.677C142.473 358.932 143.111 358.868 143.78 358.517C144.386 358.198 144.704 357.72 144.768 357.083C144.832 356.445 144.641 355.68 144.195 354.788C143.748 353.896 143.238 353.322 142.696 353.003C142.123 352.716 141.517 352.716 140.912 353.035Z" fill="#117BFD"/>
<path d="M130.744 355.935C132.051 355.425 133.198 355.425 134.218 355.903C135.238 356.382 136.003 357.274 136.513 358.613C137.023 359.983 137.119 361.194 136.736 362.214C136.354 363.234 135.557 363.999 134.378 364.477C133.262 364.892 132.274 364.892 131.381 364.477C130.489 364.063 129.82 363.266 129.373 362.087L128.991 361.131L134.569 358.995C134.218 358.198 133.772 357.656 133.198 357.37C132.625 357.083 131.955 357.083 131.19 357.401C130.712 357.593 130.266 357.816 129.852 358.071C129.469 358.326 129.055 358.645 128.672 359.059L128.13 357.625C128.481 357.242 128.863 356.923 129.278 356.668C129.692 356.413 130.17 356.127 130.744 355.935ZM133.868 363.107C134.441 362.884 134.824 362.533 135.015 362.055C135.206 361.577 135.206 360.971 135.015 360.27L131.222 361.736C131.509 362.437 131.86 362.884 132.338 363.107C132.816 363.33 133.326 363.33 133.868 363.107Z" fill="#117BFD"/>
<path d="M123.827 367.856C123.445 367.951 123.158 368.015 122.903 368.047L122.616 366.294C122.903 366.294 123.158 366.23 123.445 366.167C124.178 365.975 124.688 365.561 125.007 364.955C125.326 364.35 125.389 363.68 125.166 362.915L123.891 358.421L125.708 357.911L128.13 366.517L126.696 366.932L126.027 365.465L125.931 365.497C125.804 366.103 125.549 366.613 125.166 367.027C124.784 367.441 124.369 367.696 123.827 367.856Z" fill="#117BFD"/>
<path d="M119.907 422.582L124.146 423.506L122.871 429.307C122.138 429.371 121.437 429.403 120.768 429.339C120.098 429.307 119.397 429.18 118.664 429.021C116.911 428.638 115.668 427.809 114.967 426.566C114.234 425.323 114.106 423.761 114.52 421.881C114.935 420.032 115.795 418.694 117.102 417.865C118.409 417.036 120.003 416.845 121.883 417.259C123.094 417.514 124.178 418.024 125.166 418.725L124.146 420.16C123.317 419.522 122.425 419.108 121.469 418.885C120.226 418.598 119.174 418.789 118.282 419.395C117.389 420 116.815 420.989 116.497 422.327C116.178 423.73 116.273 424.877 116.752 425.769C117.23 426.662 118.09 427.204 119.301 427.491C119.907 427.618 120.576 427.682 121.309 427.682L121.979 424.718L119.588 424.176L119.907 422.582Z" fill="#FFD700"/>
<path d="M132.178 423.347C132.529 423.475 132.848 423.602 133.039 423.73L132.306 425.355C132.083 425.196 131.828 425.1 131.541 425.004C130.808 424.75 130.17 424.813 129.565 425.132C128.959 425.451 128.545 425.993 128.29 426.758L126.824 431.188L125.007 430.582L127.844 422.104L129.246 422.582L128.991 424.144L129.087 424.176C129.533 423.761 130.043 423.475 130.585 423.347C131.126 423.22 131.636 423.156 132.178 423.347Z" fill="#FFD700"/>
<path d="M140.561 431.857C139.955 433.196 139.159 434.088 138.139 434.535C137.119 434.981 136.003 434.949 134.792 434.375C134.027 434.025 133.421 433.578 133.007 432.973C132.593 432.367 132.338 431.666 132.306 430.901C132.274 430.104 132.465 429.307 132.816 428.447C133.389 427.108 134.218 426.248 135.206 425.801C136.194 425.355 137.342 425.419 138.585 425.961C139.764 426.471 140.529 427.268 140.88 428.351C141.262 429.403 141.135 430.582 140.561 431.857ZM134.633 429.244C133.804 431.124 134.091 432.399 135.461 433.005C136.832 433.61 137.947 432.973 138.776 431.092C139.605 429.212 139.318 427.969 137.915 427.363C137.182 427.044 136.545 427.044 136.003 427.395C135.493 427.714 135.015 428.319 134.633 429.244Z" fill="#FFD700"/>
<path d="M149.517 437.021C148.784 438.296 147.86 439.061 146.808 439.411C145.756 439.73 144.641 439.571 143.493 438.869C142.76 438.455 142.218 437.913 141.868 437.244C141.517 436.606 141.358 435.873 141.422 435.077C141.485 434.28 141.74 433.483 142.218 432.686C142.951 431.443 143.844 430.646 144.896 430.327C145.948 430.009 147.063 430.2 148.242 430.869C149.358 431.539 150.027 432.399 150.25 433.515C150.474 434.63 150.25 435.778 149.517 437.021ZM143.908 433.706C142.856 435.491 142.983 436.766 144.322 437.531C145.629 438.296 146.808 437.786 147.86 436.001C148.912 434.248 148.752 432.973 147.446 432.208C146.744 431.794 146.139 431.73 145.533 432.017C144.959 432.304 144.418 432.845 143.908 433.706Z" fill="#FFD700"/>
<path d="M150.41 443.204L153.055 433.993L154.649 435.204L152.991 440.463C152.705 441.355 152.45 442.025 152.163 442.503L152.227 442.535C152.513 442.248 153.087 441.802 153.948 441.164L158.537 438.104L160.163 439.315L152.067 444.415L150.41 443.204Z" fill="#FFD700"/>
<path d="M160.673 439.73L162.203 441.132L160.067 446.073C159.78 446.774 159.43 447.411 159.079 447.953L159.111 447.985C159.334 447.794 159.653 447.603 160.035 447.379C160.418 447.156 162.298 446.168 165.645 444.383L167.143 445.786L157.422 450.567C155.637 451.459 154.171 451.332 152.96 450.216C152.641 449.929 152.386 449.611 152.163 449.26L153.183 448.144C153.342 448.399 153.565 448.623 153.82 448.877C154.49 449.515 155.318 449.547 156.306 449.037L157.135 448.654L160.673 439.73Z" fill="#FFD700"/>
<path d="M168.609 461.754L164.561 456.432L173.996 449.292L178.044 454.615L176.737 455.603L173.868 451.81L171.287 453.754L173.964 457.324L172.689 458.312L170.012 454.742L167.048 456.973L169.916 460.766L168.609 461.754Z" fill="#FFD700"/>
<path d="M173.582 470.233L172.657 468.575L177.438 465.866C178.044 465.515 178.426 465.165 178.586 464.75C178.745 464.336 178.681 463.858 178.394 463.348C178.012 462.647 177.502 462.264 176.896 462.169C176.291 462.073 175.526 462.296 174.538 462.87L170.649 465.069L169.725 463.412L177.534 459.013L178.267 460.32L177.375 461.117L177.406 461.213C177.916 461.244 178.394 461.404 178.841 461.722C179.287 462.041 179.669 462.456 179.956 462.997C181.008 464.878 180.594 466.344 178.681 467.428L173.582 470.233Z" fill="#FFD700"/>
<path d="M177.024 474.95C177.215 475.364 177.438 475.779 177.757 476.161L176.418 476.703C176.259 476.544 176.068 476.32 175.908 476.034C175.717 475.747 175.558 475.46 175.43 475.109C174.729 473.452 175.271 472.241 177.024 471.539L181.486 469.691L181.008 468.575L181.773 468.257L182.92 469.213L184.928 469.085L185.375 470.169L183.526 470.934L184.514 473.292L183.175 473.834L182.187 471.476L177.757 473.292C177.343 473.452 177.056 473.707 176.96 473.994C176.865 474.281 176.896 474.599 177.024 474.95Z" fill="#FFD700"/>
<path d="M177.693 481.93C177.311 480.591 177.406 479.444 177.98 478.456C178.554 477.468 179.51 476.799 180.881 476.416C182.283 476.034 183.494 476.065 184.482 476.544C185.47 477.022 186.172 477.882 186.49 479.093C186.809 480.241 186.713 481.229 186.203 482.089C185.693 482.95 184.833 483.524 183.622 483.874L182.634 484.161L181.04 478.424C180.211 478.679 179.638 479.093 179.287 479.635C178.968 480.177 178.904 480.846 179.128 481.611C179.255 482.121 179.446 482.568 179.669 482.982C179.893 483.396 180.179 483.811 180.53 484.257L179.032 484.671C178.681 484.289 178.426 483.874 178.203 483.428C178.044 483.014 177.853 482.504 177.693 481.93ZM185.152 479.476C184.992 478.902 184.674 478.488 184.195 478.233C183.717 477.978 183.144 477.914 182.41 478.042L183.494 481.962C184.195 481.739 184.705 481.42 184.96 481.006C185.247 480.56 185.311 480.05 185.152 479.476Z" fill="#FFD700"/>
<path d="M188.721 490.185C188.785 490.568 188.785 490.887 188.785 491.142L187 491.205C187.032 490.919 187.032 490.632 186.968 490.345C186.873 489.58 186.522 489.006 185.948 488.624C185.375 488.241 184.705 488.082 183.94 488.209L179.319 488.879L179.032 486.998L187.893 485.691L188.116 487.157L186.586 487.636V487.731C187.16 487.954 187.638 488.273 188.02 488.687C188.403 489.134 188.658 489.644 188.721 490.185Z" fill="#FFD700"/>
<path d="M181.422 497.07C181.454 497.548 181.518 497.994 181.709 498.44L180.275 498.504C180.179 498.313 180.084 498.026 180.02 497.707C179.956 497.389 179.892 497.038 179.892 496.687C179.829 494.903 180.721 493.946 182.634 493.883L187.446 493.691L187.383 492.48L188.211 492.448L188.976 493.723L190.889 494.297L190.953 495.476L188.976 495.572L189.072 498.122L187.638 498.186L187.542 495.636L182.761 495.827C182.315 495.859 181.964 495.986 181.773 496.209C181.486 496.401 181.391 496.687 181.422 497.07Z" fill="#FFD700"/>
<path d="M179.637 505.548L180.912 505.261V505.197C180.402 504.719 180.084 504.273 179.924 503.795C179.765 503.349 179.701 502.775 179.765 502.106C179.829 501.213 180.116 500.576 180.657 500.098C181.167 499.652 181.869 499.46 182.729 499.524C183.653 499.588 184.323 500.002 184.737 500.735C185.152 501.468 185.311 502.52 185.247 503.923L185.183 505.452L185.662 505.484C186.235 505.516 186.681 505.421 186.968 505.197C187.287 504.942 187.446 504.56 187.478 503.986C187.51 503.54 187.478 503.094 187.383 502.648C187.287 502.201 187.16 501.787 187 501.405L188.403 500.895C188.626 501.405 188.753 501.946 188.849 502.52C188.944 503.094 188.944 503.668 188.913 504.178C188.817 505.325 188.498 506.154 187.956 506.695C187.415 507.237 186.618 507.46 185.566 507.365L179.542 506.855L179.637 505.548ZM181.167 502.807C181.104 503.508 181.263 504.05 181.614 504.496C181.964 504.942 182.474 505.197 183.175 505.261L183.94 505.325L183.972 504.178C184.004 503.285 183.908 502.616 183.685 502.201C183.462 501.787 183.048 501.532 182.506 501.5C182.124 501.468 181.805 501.564 181.55 501.787C181.359 502.01 181.199 502.361 181.167 502.807Z" fill="#FFD700"/>
<path d="M178.713 511.062L179.064 509.182L187.861 510.871L187.51 512.751L178.713 511.062ZM190.219 511.253C190.538 511.317 190.793 511.445 190.953 511.668C191.112 511.891 191.144 512.178 191.08 512.496C191.016 512.815 190.889 513.07 190.666 513.198C190.443 513.357 190.188 513.389 189.837 513.325C189.518 513.261 189.295 513.134 189.136 512.911C188.976 512.688 188.944 512.433 189.008 512.082C189.072 511.731 189.231 511.508 189.423 511.349C189.646 511.222 189.901 511.19 190.219 511.253Z" fill="#FFD700"/>
<path d="M175.908 520.943L176.482 519.126L181.741 520.784C182.41 521.007 182.92 521.007 183.335 520.847C183.749 520.688 184.036 520.306 184.227 519.732C184.482 518.967 184.418 518.329 184.068 517.819C183.717 517.309 183.016 516.895 181.964 516.576L177.725 515.238L178.299 513.421L186.841 516.13L186.395 517.564L185.183 517.469L185.152 517.564C185.47 517.947 185.662 518.425 185.757 518.967C185.821 519.509 185.757 520.082 185.598 520.656C184.96 522.696 183.59 523.397 181.486 522.728L175.908 520.943Z" fill="#FFD700"/>
<path d="M171.669 529.581L172.593 527.923L177.438 530.601C178.044 530.919 178.554 531.079 178.968 531.015C179.382 530.951 179.733 530.664 179.988 530.186C180.339 529.549 180.402 528.943 180.147 528.433C179.892 527.891 179.287 527.381 178.299 526.84L174.41 524.672L175.335 523.015L183.175 527.35L182.442 528.656L181.295 528.338L181.263 528.433C181.518 528.848 181.645 529.326 181.614 529.867C181.582 530.409 181.454 530.919 181.167 531.397C180.498 532.609 179.637 533.182 178.618 533.119L178.554 533.246C178.809 533.692 178.936 534.17 178.936 534.712C178.936 535.254 178.777 535.796 178.458 536.338C177.948 537.262 177.343 537.836 176.61 537.995C175.908 538.155 175.048 537.963 174.092 537.453L168.992 534.648L169.916 532.991L174.761 535.668C175.366 535.987 175.876 536.147 176.291 536.051C176.705 535.955 177.056 535.7 177.311 535.222C177.661 534.585 177.725 533.979 177.502 533.469C177.279 532.959 176.737 532.449 175.876 532.003L171.669 529.581Z" fill="#FFD700"/>
<path d="M164.88 539.079C165.773 537.995 166.761 537.421 167.876 537.326C168.992 537.23 170.107 537.645 171.223 538.537C172.37 539.461 173.008 540.481 173.199 541.565C173.39 542.649 173.072 543.7 172.275 544.688C171.542 545.613 170.649 546.091 169.661 546.187C168.673 546.25 167.685 545.9 166.729 545.103L165.932 544.465L169.693 539.844C168.992 539.302 168.323 539.079 167.685 539.111C167.048 539.143 166.474 539.493 165.964 540.131C165.645 540.545 165.358 540.959 165.135 541.374C164.912 541.788 164.753 542.266 164.593 542.84L163.382 541.852C163.51 541.342 163.669 540.896 163.924 540.449C164.179 540.003 164.498 539.557 164.88 539.079ZM171.159 543.764C171.542 543.286 171.701 542.808 171.637 542.266C171.574 541.756 171.287 541.214 170.745 540.704L168.163 543.86C168.737 544.306 169.279 544.529 169.789 544.497C170.331 544.465 170.777 544.242 171.159 543.764Z" fill="#FFD700"/>
<path d="M155.828 548.545L157.231 547.238L160.992 551.254C161.47 551.764 161.916 552.051 162.362 552.115C162.808 552.179 163.223 551.987 163.669 551.573C164.243 551.031 164.53 550.458 164.466 549.852C164.402 549.246 164.02 548.545 163.255 547.716L160.195 544.465L161.597 543.159L167.717 549.693L166.633 550.712L165.645 550.043L165.581 550.107C165.677 550.617 165.613 551.095 165.422 551.605C165.231 552.115 164.88 552.561 164.466 552.975C162.904 554.442 161.374 554.378 159.876 552.784L155.828 548.545Z" fill="#FFD700"/>
<path d="M152.099 553.071C151.717 553.358 151.398 553.677 151.111 554.091L150.25 552.944C150.378 552.753 150.537 552.529 150.76 552.274C150.983 552.02 151.238 551.796 151.525 551.573C152.96 550.49 154.266 550.713 155.382 552.243L158.282 556.099L159.27 555.366L159.78 556.036L159.143 557.374L159.749 559.287L158.824 559.988L157.645 558.394L155.605 559.924L154.744 558.777L156.784 557.247L153.916 553.422C153.629 553.039 153.342 552.848 153.023 552.816C152.705 552.753 152.418 552.848 152.099 553.071Z" fill="#FFD700"/>
<path d="M89.4681 522.855V527.222H83.5397C83.3166 526.521 83.1572 525.82 83.0616 525.182C82.966 524.545 82.9023 523.812 82.9023 523.047C82.9023 521.262 83.4441 519.859 84.4959 518.903C85.5477 517.947 87.0458 517.437 88.99 517.437C90.9024 517.437 92.4005 517.979 93.4523 519.094C94.5041 520.21 95.0778 521.708 95.0778 523.62C95.0778 524.863 94.8547 526.011 94.3766 527.126L92.7511 526.457C93.1973 525.501 93.4204 524.545 93.4204 523.589C93.4204 522.314 93.0379 521.326 92.2411 520.592C91.4443 519.859 90.3606 519.477 88.99 519.477C87.5557 519.477 86.4402 519.796 85.7071 520.465C84.974 521.134 84.5915 522.091 84.5915 523.334C84.5915 523.971 84.6553 524.64 84.8147 525.342H87.8745V522.887H89.4681V522.855Z" fill="#117BFD"/>
<path d="M86.6952 529.071H88.3207V533.246H86.6952V529.071Z" fill="#117BFD"/>
<path d="M86.2489 542.202C85.1971 542.202 84.3684 541.82 83.7628 541.055C83.1572 540.29 82.8704 539.238 82.8704 537.9C82.8704 536.561 83.0935 535.477 83.5078 534.617H85.3246C85.0696 535.158 84.8784 535.732 84.719 536.338C84.5597 536.943 84.4959 537.517 84.4959 538.027C84.4959 538.792 84.6553 539.366 84.9421 539.716C85.229 540.067 85.6115 540.258 86.1214 540.258C86.5677 540.258 86.9501 540.099 87.237 539.748C87.5239 539.398 87.9064 538.728 88.3207 537.676C88.7669 536.593 89.245 535.828 89.8187 535.382C90.3925 534.935 91.0618 534.712 91.8268 534.712C92.8148 534.712 93.5798 535.063 94.1535 535.764C94.7272 536.465 95.0141 537.421 95.0141 538.601C95.0141 539.748 94.7591 540.864 94.281 541.979L92.6873 541.374C93.1335 540.322 93.3567 539.398 93.3567 538.569C93.3567 537.931 93.2292 537.453 92.9423 537.135C92.6555 536.816 92.3049 536.657 91.8586 536.657C91.5399 536.657 91.2849 536.72 91.0618 536.848C90.8387 536.975 90.6474 537.198 90.4562 537.485C90.265 537.772 90.01 538.314 89.6913 539.079C89.3406 539.939 88.99 540.577 88.6713 540.991C88.3526 541.406 88.002 541.693 87.6195 541.884C87.2689 542.107 86.7908 542.202 86.2489 542.202Z" fill="#117BFD"/>
<path d="M87.5557 552.211C86.0896 552.211 84.9421 551.828 84.1453 551.095C83.3166 550.33 82.9023 549.31 82.9023 547.972C82.9023 547.143 83.0935 546.41 83.476 545.741C83.8585 545.103 84.4003 544.593 85.1015 544.274C85.8027 543.924 86.6314 543.764 87.5557 543.764C89.0219 543.764 90.1375 544.147 90.9662 544.88C91.7949 545.613 92.1774 546.665 92.1774 548.035C92.1774 549.342 91.763 550.362 90.9343 551.095C90.1056 551.828 88.9582 552.211 87.5557 552.211ZM87.5557 545.709C85.484 545.709 84.464 546.474 84.464 548.004C84.464 549.502 85.484 550.267 87.5557 550.267C89.5956 550.267 90.6156 549.502 90.6156 547.972C90.6156 547.175 90.3606 546.601 89.8187 546.251C89.2769 545.868 88.5438 545.709 87.5557 545.709Z" fill="#117BFD"/>
<path d="M83.0616 556.291V554.378H95.6516V556.291H83.0616Z" fill="#117BFD"/>
<path d="M83.0616 564.61L84.3047 564.227V564.163C83.7628 563.717 83.3803 563.303 83.1891 562.857C82.9978 562.41 82.9022 561.868 82.9022 561.167C82.9022 560.275 83.1253 559.605 83.6034 559.096C84.0815 558.617 84.7509 558.362 85.6115 558.362C86.5358 558.362 87.237 558.713 87.7151 559.382C88.1932 560.052 88.4482 561.104 88.4801 562.506L88.5438 564.036H88.99C89.5637 564.036 89.9781 563.908 90.2649 563.622C90.5518 563.335 90.6793 562.952 90.6793 562.378C90.6793 561.932 90.6156 561.486 90.4881 561.072C90.3606 560.657 90.2012 560.243 90.01 559.86L91.3805 559.255C91.6355 559.733 91.8267 560.275 91.9542 560.849C92.0817 561.422 92.1455 561.964 92.1455 562.474C92.1455 563.622 91.8905 564.482 91.4124 565.056C90.9024 565.63 90.1375 565.916 89.0856 565.916H83.0616V564.61ZM84.3365 561.805C84.3365 562.506 84.5278 563.048 84.9103 563.462C85.2927 563.876 85.8346 564.1 86.5358 564.1H87.3007L87.237 562.952C87.2051 562.06 87.0457 561.39 86.7908 561.008C86.5358 560.625 86.1214 560.402 85.5796 560.402C85.1652 560.402 84.8784 560.53 84.6553 560.753C84.4322 560.976 84.3365 561.327 84.3365 561.805Z" fill="#117BFD"/>
<path d="M92.1774 573.183C92.1774 573.566 92.1455 573.884 92.0818 574.139L90.2968 573.948C90.3606 573.693 90.3925 573.406 90.3925 573.119C90.3925 572.354 90.1375 571.749 89.6594 571.271C89.1494 570.793 88.5119 570.57 87.7151 570.57H83.0297V568.657H91.9861V570.155L90.3925 570.41V570.506C90.9343 570.793 91.3487 571.175 91.6674 571.653C92.018 572.099 92.1774 572.641 92.1774 573.183Z" fill="#117BFD"/>
<defs>
<filter id="filter0_d_38_1586" x="104.895" y="407.255" width="98.6429" height="163.177" filterUnits="userSpaceOnUse" color-interpolation-filters="sRGB">
<feFlood flood-opacity="0" result="BackgroundImageFix"/>
<feColorMatrix in="SourceAlpha" type="matrix" values="0 0 0 0 0 0 0 0 0 0 0 0 0 0 0 0 0 0 127 0" result="hardAlpha"/>
<feOffset dx="6.27426" dy="2.5097"/>
<feComposite in2="hardAlpha" operator="out"/>
<feColorMatrix type="matrix" values="0 0 0 0 0 0 0 0 0 0 0 0 0 0 0 0 0 0 0.25 0"/>
<feBlend mode="normal" in2="BackgroundImageFix" result="effect1_dropShadow_38_1586"/>
<feBlend mode="normal" in="SourceGraphic" in2="effect1_dropShadow_38_1586" result="shape"/>
</filter>
<filter id="filter1_d_38_1586" x="76.9739" y="512.369" width="29.0317" height="69.0928" filterUnits="userSpaceOnUse" color-interpolation-filters="sRGB">
<feFlood flood-opacity="0" result="BackgroundImageFix"/>
<feColorMatrix in="SourceAlpha" type="matrix" values="0 0 0 0 0 0 0 0 0 0 0 0 0 0 0 0 0 0 127 0" result="hardAlpha"/>
<feOffset dx="6.27426" dy="2.5097"/>
<feComposite in2="hardAlpha" operator="out"/>
<feColorMatrix type="matrix" values="0 0 0 0 0 0 0 0 0 0 0 0 0 0 0 0 0 0 0.25 0"/>
<feBlend mode="normal" in2="BackgroundImageFix" result="effect1_dropShadow_38_1586"/>
<feBlend mode="normal" in="SourceGraphic" in2="effect1_dropShadow_38_1586" result="shape"/>
</filter>
<filter id="filter2_d_38_1586" x="99.7951" y="200.324" width="103.743" height="185.693" filterUnits="userSpaceOnUse" color-interpolation-filters="sRGB">
<feFlood flood-opacity="0" result="BackgroundImageFix"/>
<feColorMatrix in="SourceAlpha" type="matrix" values="0 0 0 0 0 0 0 0 0 0 0 0 0 0 0 0 0 0 127 0" result="hardAlpha"/>
<feOffset dx="6.27426" dy="2.5097"/>
<feComposite in2="hardAlpha" operator="out"/>
<feColorMatrix type="matrix" values="0 0 0 0 0 0 0 0 0 0 0 0 0 0 0 0 0 0 0.25 0"/>
<feBlend mode="normal" in2="BackgroundImageFix" result="effect1_dropShadow_38_1586"/>
<feBlend mode="normal" in="SourceGraphic" in2="effect1_dropShadow_38_1586" result="shape"/>
</filter>
<filter id="filter3_d_38_1586" x="1.4024" y="136.265" width="87.2004" height="33.4905" filterUnits="userSpaceOnUse" color-interpolation-filters="sRGB">
<feFlood flood-opacity="0" result="BackgroundImageFix"/>
<feColorMatrix in="SourceAlpha" type="matrix" values="0 0 0 0 0 0 0 0 0 0 0 0 0 0 0 0 0 0 127 0" result="hardAlpha"/>
<feOffset dx="6.27426" dy="2.5097"/>
<feComposite in2="hardAlpha" operator="out"/>
<feColorMatrix type="matrix" values="0 0 0 0 0 0 0 0 0 0 0 0 0 0 0 0 0 0 0.25 0"/>
<feBlend mode="normal" in2="BackgroundImageFix" result="effect1_dropShadow_38_1586"/>
<feBlend mode="normal" in="SourceGraphic" in2="effect1_dropShadow_38_1586" result="shape"/>
</filter>
<filter id="filter4_d_38_1586" x="33.7218" y="0.0318909" width="168.445" height="33.1718" filterUnits="userSpaceOnUse" color-interpolation-filters="sRGB">
<feFlood flood-opacity="0" result="BackgroundImageFix"/>
<feColorMatrix in="SourceAlpha" type="matrix" values="0 0 0 0 0 0 0 0 0 0 0 0 0 0 0 0 0 0 127 0" result="hardAlpha"/>
<feOffset dx="6.27426" dy="2.5097"/>
<feComposite in2="hardAlpha" operator="out"/>
<feColorMatrix type="matrix" values="0 0 0 0 0 0 0 0 0 0 0 0 0 0 0 0 0 0 0.25 0"/>
<feBlend mode="normal" in2="BackgroundImageFix" result="effect1_dropShadow_38_1586"/>
<feBlend mode="normal" in="SourceGraphic" in2="effect1_dropShadow_38_1586" result="shape"/>
</filter>
<filter id="filter5_d_38_1586" x="87.1414" y="60.9097" width="33.6852" height="65.2681" filterUnits="userSpaceOnUse" color-interpolation-filters="sRGB">
<feFlood flood-opacity="0" result="BackgroundImageFix"/>
<feColorMatrix in="SourceAlpha" type="matrix" values="0 0 0 0 0 0 0 0 0 0 0 0 0 0 0 0 0 0 127 0" result="hardAlpha"/>
<feOffset dx="6.27426" dy="2.5097"/>
<feComposite in2="hardAlpha" operator="out"/>
<feColorMatrix type="matrix" values="0 0 0 0 0 0 0 0 0 0 0 0 0 0 0 0 0 0 0.25 0"/>
<feBlend mode="normal" in2="BackgroundImageFix" result="effect1_dropShadow_38_1586"/>
<feBlend mode="normal" in="SourceGraphic" in2="effect1_dropShadow_38_1586" result="shape"/>
</filter>
</defs>
</svg>
