<svg width="899" height="305" viewBox="0 0 899 305" fill="none" xmlns="http://www.w3.org/2000/svg">
<g filter="url(#filter0_d_41_226)">
<a href="alewahouse.com">
<path d="M676.395 110.218C680.75 97.0528 686.966 85.4534 695.091 75.5181C703.215 65.5828 713.052 57.5562 724.554 51.5363C736.055 45.5164 748.829 42.482 762.827 42.482C779.908 42.482 795.618 46.5442 809.958 54.6686C818.474 59.5139 825.914 65.8275 832.276 73.5604C839.764 82.7126 853.125 84.4256 862.718 77.4758C873.094 69.9876 875.15 55.4028 867.27 45.3696C858.803 34.6512 848.427 25.45 836.045 17.864C816.712 5.97097 792.731 0 764.099 0C743.641 0 724.701 4.01328 707.326 11.9909C689.952 19.9685 674.926 30.8337 662.299 44.5865C649.672 58.3393 639.786 74.2946 632.64 92.5501C629.85 99.6467 627.648 106.841 625.935 114.232C622.705 128.327 633.325 141.835 647.812 141.835H650.7C661.369 141.835 670.521 134.298 672.724 123.873C673.654 119.224 674.877 114.672 676.395 110.218Z" fill="#FFD700" fill-opacity="0.1" shape-rendering="crispEdges"/>
</a>
</g>
<g filter="url(#filter1_d_41_226)">
<path d="M871.527 149.764H804.232C794.59 149.764 786.759 157.594 786.759 167.236C786.759 176.878 794.59 184.708 804.232 184.708H849.454H871.527C881.169 184.708 889 176.878 889 167.236C889 157.545 881.169 149.764 871.527 149.764Z" fill="#117BFD" fill-opacity="0.1" shape-rendering="crispEdges"/>
</g>
<path d="M849.455 216.179C849.455 216.472 849.357 216.766 849.161 216.962C836.632 231.938 823.466 242.901 809.714 249.851C795.814 256.85 781.327 260.374 766.155 260.374C752.402 260.374 739.677 257.486 727.882 251.76C716.087 246.033 705.956 238.252 697.391 228.414C688.826 218.626 682.121 207.124 677.178 193.91C674.535 186.813 672.577 179.374 671.353 171.69C669.543 160.139 659.656 151.575 647.959 151.575H647.763C632.983 151.575 621.824 164.936 624.467 179.472C626.229 189.26 628.969 198.853 632.591 208.25C639.737 226.75 649.623 243.048 662.25 257.045C674.877 271.092 689.707 282.202 706.837 290.473C723.918 298.744 742.467 302.904 762.337 302.904C795.129 302.904 824.152 289.886 849.406 263.799V281.027C849.406 291.941 858.264 300.8 869.179 300.8C880.093 300.8 888.951 291.941 888.951 281.027V216.179C888.951 205.264 880.093 196.406 869.179 196.406C858.313 196.406 849.455 205.264 849.455 216.179Z" fill="black"/>
<g filter="url(#filter2_d_41_226)">
<path d="M359.639 111.687C363.995 98.6678 370.211 87.0685 378.335 76.9864C386.46 66.9042 396.444 58.6819 408.19 52.3683C419.985 46.0548 433.444 42.9225 448.568 42.9225C462.859 42.9225 475.828 45.9569 487.477 51.9768C499.125 57.9967 509.06 66.0233 517.332 75.9586C525.603 85.8939 531.965 97.3953 536.468 110.463C538.622 116.728 540.237 123.09 541.362 129.648C543.32 141.15 553.206 149.666 564.904 149.666H565.001C580.076 149.666 591.43 135.864 588.396 121.083C586.683 112.861 584.334 104.688 581.25 96.5633C574.398 78.4546 564.708 62.3036 552.228 47.9635C539.747 33.6724 524.722 22.073 507.201 13.2634C489.679 4.45377 470.249 0 448.959 0C428.208 0 409.071 4.16011 391.55 12.4314C374.028 20.7026 358.856 31.8615 346.131 45.859C333.357 59.9055 323.324 76.0075 316.081 94.2141C312.557 103.073 309.865 112.078 308.054 121.328C305.166 136.011 316.57 149.617 331.497 149.617C343.048 149.617 352.983 141.346 354.99 129.991C356.066 123.824 357.633 117.755 359.639 111.687Z" fill="#117BFD" fill-opacity="0.1" shape-rendering="crispEdges"/>
</g>
<path d="M536.958 190.973C532.749 203.894 526.582 215.493 518.457 225.869C510.333 236.245 500.447 244.565 488.798 250.879C477.15 257.192 463.789 260.325 448.617 260.325C434.032 260.325 420.866 257.29 409.071 251.27C397.276 245.25 387.243 237.175 379.021 227.093C370.749 217.011 364.387 205.362 359.884 192.197C358.073 186.911 356.654 181.527 355.577 176.144C353.375 164.985 343.635 156.958 332.281 156.958C317.059 156.958 305.754 171.054 309.082 185.932C310.697 193.176 312.85 200.321 315.542 207.418C322.394 225.673 332.134 241.824 344.761 256.018C357.388 270.162 372.462 281.517 389.984 290.082C407.505 298.646 426.935 302.904 448.225 302.904C468.683 302.904 487.673 298.793 505.243 290.473C522.764 282.202 537.985 271.141 550.857 257.241C563.729 243.342 573.762 227.288 580.908 209.082C583.893 201.447 586.292 193.616 588.004 185.687C591.235 170.956 579.88 157.007 564.757 157.007H564.121C552.717 157.007 543.026 165.132 540.824 176.29C539.796 181.185 538.524 186.128 536.958 190.973Z" fill="black"/>
<g filter="url(#filter3_d_41_226)">
<path d="M233.025 300.751C246.142 300.751 256.811 290.13 256.811 276.965V200.272C256.811 187.156 246.191 176.486 233.025 176.486C219.909 176.486 209.239 187.107 209.239 200.272V276.965C209.288 290.13 219.909 300.751 233.025 300.751Z" fill="#FFD700" fill-opacity="0.1" shape-rendering="crispEdges"/>
</g>
<path d="M233.025 2.10452C219.909 2.10452 209.239 12.725 209.239 25.8905V127.054V145.359C209.239 158.475 219.86 169.145 233.025 169.145C246.142 169.145 256.811 158.524 256.811 145.359V25.8905C256.811 12.774 246.191 2.10452 233.025 2.10452Z" fill="black"/>
<path d="M20.8984 300.751H26.2821C37.8325 300.751 47.1805 291.403 47.1805 279.852C47.1805 268.302 37.8325 258.954 26.2821 258.954H20.8984C9.348 258.954 0 268.302 0 279.852C0 291.403 9.348 300.751 20.8984 300.751Z" fill="black"/>
<g filter="url(#filter4_d_41_226)">
<path d="M23.5902 2.10452C10.5716 2.10452 0.0489502 12.6272 0.0489502 25.6458V227.582C0.0489502 240.601 10.5716 251.123 23.5902 251.123C36.6089 251.123 47.1315 240.601 47.1315 227.582V196.112V169.096V127.054V25.6458C47.1315 12.6761 36.6089 2.10452 23.5902 2.10452Z" fill="#FFD700" fill-opacity="0.1" shape-rendering="crispEdges"/>
</g>
<g filter="url(#filter5_d_41_226)">
<path d="M93.5289 148.051C93.5289 159.65 102.926 169.096 114.574 169.096H168.851C180.451 169.096 189.896 159.699 189.896 148.051C189.896 136.451 180.5 127.005 168.851 127.005H114.574C102.926 127.054 93.5289 136.451 93.5289 148.051Z" fill="#117BFD" fill-opacity="0.1" shape-rendering="crispEdges"/>
</g>
<path d="M20.409 233.896V227.191H29.5123C29.8549 228.267 30.0996 229.344 30.2464 230.323C30.3933 231.302 30.4912 232.427 30.4912 233.602C30.4912 236.343 29.6591 238.496 28.044 239.964C26.4289 241.433 24.1286 242.216 21.1432 242.216C18.2066 242.216 15.9063 241.384 14.2912 239.671C12.6272 238.007 11.7952 235.658 11.7952 232.721C11.7952 230.812 12.1378 229.05 12.8719 227.337L15.368 228.365C14.6828 229.833 14.3402 231.302 14.3402 232.77C14.3402 234.728 14.9275 236.245 16.151 237.371C17.3746 238.496 19.0386 239.084 21.1432 239.084C23.3456 239.084 25.0585 238.594 26.1842 237.566C27.3099 236.539 27.8972 235.07 27.8972 233.161C27.8972 232.183 27.7993 231.155 27.5546 230.078H22.8561V233.847H20.409V233.896Z" fill="#FFD700"/>
<path d="M16.2488 216.178C16.2488 215.591 16.2977 215.102 16.3956 214.71L19.1364 215.004C19.0385 215.395 18.9895 215.836 18.9895 216.276C18.9895 217.451 19.3811 218.381 20.1152 219.115C20.8494 219.849 21.8772 220.192 23.1007 220.192H30.2952V223.128H16.5424V220.828L18.9895 220.436V220.29C18.1575 219.849 17.5213 219.262 17.0319 218.528C16.5424 217.794 16.2488 217.059 16.2488 216.178Z" fill="#FFD700"/>
<path d="M23.3454 200.028C25.5968 200.028 27.3587 200.615 28.5823 201.741C29.8548 202.915 30.491 204.481 30.491 206.537C30.491 207.809 30.1974 208.935 29.61 209.963C29.0227 210.942 28.1907 211.725 27.114 212.214C26.0373 212.753 24.7648 212.997 23.3454 212.997C21.0941 212.997 19.3811 212.41 18.1086 211.284C16.8361 210.159 16.2488 208.543 16.2488 206.439C16.2488 204.432 16.885 202.866 18.1575 201.741C19.479 200.615 21.192 200.028 23.3454 200.028ZM23.3454 210.012C26.5267 210.012 28.0928 208.837 28.0928 206.488C28.0928 204.188 26.5267 203.013 23.3454 203.013C20.2131 203.013 18.647 204.188 18.647 206.537C18.647 207.76 19.0385 208.641 19.8705 209.18C20.7025 209.718 21.8282 210.012 23.3454 210.012Z" fill="#FFD700"/>
<path d="M23.3454 184.464C25.5968 184.464 27.3587 185.051 28.5823 186.177C29.8548 187.351 30.491 188.918 30.491 190.973C30.491 192.246 30.1974 193.371 29.61 194.399C29.0227 195.378 28.1907 196.161 27.114 196.651C26.0373 197.189 24.7648 197.434 23.3454 197.434C21.0941 197.434 19.3811 196.846 18.1086 195.721C16.8361 194.595 16.2488 192.98 16.2488 190.875C16.2488 188.869 16.885 187.303 18.1575 186.177C19.479 185.051 21.192 184.464 23.3454 184.464ZM23.3454 194.448C26.5267 194.448 28.0928 193.274 28.0928 190.924C28.0928 188.624 26.5267 187.449 23.3454 187.449C20.2131 187.449 18.647 188.624 18.647 190.973C18.647 192.197 19.0385 193.078 19.8705 193.616C20.7025 194.154 21.8282 194.448 23.3454 194.448Z" fill="#FFD700"/>
<path d="M30.2465 177.954L16.4937 183.191V180.108L24.4713 177.318C25.7927 176.829 26.9184 176.535 27.7504 176.437V176.339C27.1631 176.241 26.0864 175.997 24.4713 175.458L16.4937 172.669V169.585L30.2465 174.822V177.954Z" fill="#FFD700"/>
<path d="M30.491 161.51C30.491 163.663 29.8548 165.327 28.6312 166.502C27.4076 167.677 25.6457 168.313 23.4923 168.313C21.2409 168.313 19.479 167.774 18.2065 166.649C16.934 165.523 16.2977 164.006 16.2977 162.048C16.2977 160.237 16.8361 158.818 17.9618 157.741C19.0874 156.714 20.5557 156.175 22.5134 156.175H24.0796V165.278C25.401 165.229 26.4288 164.887 27.1629 164.202C27.8971 163.517 28.2397 162.587 28.2397 161.314C28.2397 160.482 28.1418 159.748 27.995 159.063C27.8481 158.378 27.6034 157.594 27.2119 156.811H29.5611C29.9037 157.546 30.1484 158.231 30.2953 158.965C30.4421 159.699 30.491 160.531 30.491 161.51ZM18.4512 161.999C18.4512 162.929 18.7448 163.663 19.3322 164.251C19.9195 164.838 20.8004 165.132 21.9261 165.23V159.014C20.8004 159.014 19.9195 159.307 19.3322 159.846C18.7448 160.384 18.4512 161.118 18.4512 161.999Z" fill="#FFD700"/>
<path d="M20.9964 131.117C23.9819 131.117 26.2822 131.949 27.8973 133.613C29.5124 135.277 30.2954 137.675 30.2954 140.807V145.897H12.1378V140.269C12.1378 137.381 12.9209 135.13 14.4871 133.515C15.9553 131.949 18.1577 131.117 20.9964 131.117ZM21.0943 134.249C16.7384 134.249 14.5849 136.305 14.5849 140.367V142.961H27.7504V140.807C27.7504 136.451 25.548 134.249 21.0943 134.249Z" fill="#FFD700"/>
<path d="M30.491 121.524C30.491 123.677 29.8548 125.341 28.6312 126.516C27.4076 127.691 25.6457 128.327 23.4923 128.327C21.2409 128.327 19.479 127.789 18.2065 126.663C16.934 125.537 16.2977 124.02 16.2977 122.062C16.2977 120.251 16.8361 118.832 17.9618 117.755C19.0874 116.728 20.5557 116.189 22.5134 116.189H24.0796V125.342C25.401 125.293 26.4288 124.95 27.1629 124.265C27.8971 123.58 28.2397 122.65 28.2397 121.377C28.2397 120.545 28.1418 119.811 27.995 119.126C27.8481 118.441 27.6034 117.658 27.2119 116.874H29.5611C29.9037 117.609 30.1484 118.294 30.2953 119.028C30.4421 119.762 30.491 120.594 30.491 121.524ZM18.4512 122.062C18.4512 122.992 18.7448 123.726 19.3322 124.314C19.9195 124.901 20.8004 125.195 21.9261 125.293V119.077C20.8004 119.077 19.9195 119.371 19.3322 119.909C18.7448 120.398 18.4512 121.132 18.4512 122.062Z" fill="#FFD700"/>
<path d="M30.2465 109.729L16.4937 114.966V111.882L24.4713 109.093C25.7927 108.603 26.9184 108.31 27.7504 108.212V108.114C27.1631 108.016 26.0864 107.771 24.4713 107.233L16.4937 104.443V101.36L30.2465 106.597V109.729Z" fill="#FFD700"/>
<path d="M30.491 93.2352C30.491 95.3887 29.8548 97.0527 28.6312 98.2273C27.4076 99.402 25.6457 100.038 23.4923 100.038C21.2409 100.038 19.479 99.4998 18.2065 98.3742C16.934 97.2485 16.2977 95.7313 16.2977 93.7736C16.2977 91.9627 16.8361 90.5434 17.9618 89.4666C19.0874 88.3899 20.5557 87.9005 22.5134 87.9005H24.0796V97.0527C25.401 97.0038 26.4288 96.6612 27.1629 95.976C27.8971 95.2908 28.2397 94.3609 28.2397 93.0884C28.2397 92.2564 28.1418 91.5222 27.995 90.8371C27.8481 90.1519 27.6034 89.3688 27.2119 88.5857H29.5611C29.9037 89.3198 30.1484 90.005 30.2953 90.7392C30.4421 91.4733 30.491 92.3053 30.491 93.2352ZM18.4512 93.7736C18.4512 94.7035 18.7448 95.4376 19.3322 96.0249C19.9195 96.6122 20.8004 96.9059 21.9261 97.0038V90.7881C20.8004 90.7881 19.9195 91.0818 19.3322 91.6201C18.7448 92.1585 18.4512 92.8437 18.4512 93.7736Z" fill="#FFD700"/>
<a href="alewahouse.com"><path d="M30.2463 81.6849V84.6214H10.9141V81.6849H30.2463Z" fill="#FFD700"/></a>
<path d="M23.3454 65.2892C25.5968 65.2892 27.3587 65.8765 28.5823 67.0021C29.8058 68.1278 30.491 69.7429 30.491 71.7985C30.491 73.071 30.1974 74.1967 29.61 75.2245C29.0227 76.2522 28.1907 76.9864 27.114 77.4758C26.0373 77.9652 24.7648 78.2589 23.3454 78.2589C21.0941 78.2589 19.3811 77.6716 18.1086 76.5459C16.8361 75.4202 16.2488 73.8051 16.2488 71.7006C16.2488 69.694 16.885 68.1278 18.1575 67.0021C19.43 65.8765 21.192 65.2892 23.3454 65.2892ZM23.3454 75.3223C26.5267 75.3223 28.0928 74.1477 28.0928 71.7985C28.0928 69.4982 26.5267 68.3236 23.3454 68.3236C20.2131 68.3236 18.647 69.4982 18.647 71.8474C18.647 73.071 19.0385 73.9519 19.8705 74.4903C20.7025 75.0287 21.8282 75.3223 23.3454 75.3223Z" fill="#FFD700"/>
<path d="M30.491 54.9623C30.491 56.7242 29.8548 58.0457 28.6312 59.0245V59.2203C29.8058 59.1224 30.491 59.0245 30.7357 59.0245H36.3641V61.9611H16.4935V59.6118C16.7382 59.5629 17.3744 59.416 18.3533 59.2203V59.0735C16.9829 58.1436 16.2488 56.7732 16.2488 54.9623C16.2488 53.2493 16.885 51.9279 18.1086 50.949C19.3321 49.9702 21.0941 49.5297 23.3454 49.5297C25.5968 49.5297 27.3587 50.0191 28.5823 50.998C29.8058 51.9768 30.491 53.2493 30.491 54.9623ZM18.647 55.6964C18.647 56.871 18.9896 57.7031 19.6747 58.2414C20.3599 58.7798 21.4367 59.0245 22.9539 59.0245H23.3944C25.0584 59.0245 26.282 58.7798 27.0161 58.2414C27.7502 57.7031 28.1418 56.8221 28.1418 55.6475C28.1418 54.6197 27.7502 53.8366 26.9182 53.2983C26.0862 52.7599 24.9116 52.4662 23.3944 52.4662C21.8771 52.4662 20.7025 52.7599 19.9195 53.2983C19.1364 53.8366 18.647 54.6197 18.647 55.6964Z" fill="#FFD700"/>
<path d="M30.491 40.0839C30.491 42.2373 29.8548 43.9014 28.6312 45.076C27.4076 46.2506 25.6457 46.8868 23.4923 46.8868C21.2409 46.8868 19.479 46.3485 18.2065 45.2228C16.934 44.0972 16.2977 42.5799 16.2977 40.6222C16.2977 38.8114 16.8361 37.392 17.9618 36.3153C19.0874 35.2386 20.5557 34.7491 22.5134 34.7491H24.0796V43.9014C25.401 43.8524 26.4288 43.5098 27.1629 42.8246C27.8971 42.1394 28.2397 41.2096 28.2397 39.9371C28.2397 39.105 28.1418 38.3709 27.995 37.6857C27.8481 37.0005 27.6034 36.2174 27.2119 35.4344H29.5611C29.9037 36.1685 30.1484 36.8537 30.2953 37.5878C30.4421 38.3219 30.491 39.154 30.491 40.0839ZM18.4512 40.6222C18.4512 41.5521 18.7448 42.2863 19.3322 42.8736C19.9195 43.4609 20.8004 43.7546 21.9261 43.8524V37.6368C20.8004 37.6368 19.9195 37.9304 19.3322 38.4688C18.7448 39.0072 18.4512 39.6923 18.4512 40.6222Z" fill="#FFD700"/>
<path d="M16.2488 24.4712C16.2488 23.8839 16.2977 23.3945 16.3956 23.003L19.1364 23.2966C19.0385 23.6882 18.9895 24.1286 18.9895 24.5691C18.9895 25.7437 19.3811 26.6736 20.1152 27.4078C20.8494 28.1419 21.8772 28.4845 23.1007 28.4845H30.2952V31.4211H16.5424V29.1208L18.9895 28.7292V28.5824C18.1575 28.1419 17.5213 27.5546 17.0319 26.8205C16.5424 26.0863 16.2488 25.3033 16.2488 24.4712Z" fill="#FFD700"/>
<path d="M26.3308 11.2077C27.6522 11.2077 28.68 11.6972 29.4141 12.676C30.1483 13.6549 30.4909 15.0742 30.4909 16.885C30.4909 18.6959 30.1972 20.1642 29.6589 21.2899H27.1139C27.848 19.6748 28.2395 18.1575 28.2395 16.7871C28.2395 14.9763 27.7012 14.0953 26.6244 14.0953C26.2818 14.0953 25.9882 14.1932 25.7435 14.389C25.4988 14.5848 25.254 14.9274 25.0093 15.3678C24.7646 15.8083 24.471 16.4446 24.1773 17.2766C23.5411 18.8427 22.9538 19.9195 22.3175 20.5068C21.6813 21.0941 20.8982 21.3388 19.9193 21.3388C18.7447 21.3388 17.8148 20.8494 17.1786 19.9195C16.5423 18.9896 16.1997 17.6681 16.1997 16.053C16.1997 14.4379 16.5423 12.9207 17.1786 11.4524L19.381 12.3823C18.7447 13.8506 18.4511 15.1231 18.4511 16.102C18.4511 17.6192 18.8915 18.4023 19.7725 18.4023C20.213 18.4023 20.5556 18.2065 20.8492 17.815C21.1429 17.4234 21.5344 16.5424 22.0728 15.1721C22.5133 14.0464 22.9048 13.2144 23.2964 12.676C23.6879 12.1376 24.0794 11.795 24.5689 11.5503C25.0583 11.3056 25.6945 11.2077 26.3308 11.2077Z" fill="#FFD700"/>
<path d="M113.987 147.268H120.692V156.371C119.615 156.713 118.538 156.958 117.56 157.105C116.581 157.252 115.455 157.35 114.28 157.35C111.54 157.35 109.386 156.518 107.918 154.903C106.45 153.288 105.667 150.987 105.667 148.002C105.667 145.065 106.499 142.765 108.212 141.15C109.876 139.486 112.225 138.654 115.161 138.654C117.07 138.654 118.832 138.996 120.545 139.73L119.517 142.227C118.049 141.541 116.581 141.199 115.113 141.199C113.155 141.199 111.638 141.786 110.512 143.01C109.386 144.233 108.799 145.897 108.799 148.002C108.799 150.204 109.288 151.917 110.316 153.043C111.344 154.217 112.812 154.756 114.721 154.756C115.7 154.756 116.728 154.658 117.804 154.413V149.715H114.036V147.268H113.987Z" fill="#117BFD"/>
<path d="M123.53 151.526V149.03H129.942V151.526H123.53Z" fill="#117BFD"/>
<path d="M140.954 141.248C139.241 141.248 137.92 141.835 136.941 143.059C135.962 144.282 135.473 145.946 135.473 148.051C135.473 150.302 135.962 151.966 136.892 153.092C137.822 154.217 139.192 154.805 140.954 154.805C141.737 154.805 142.471 154.707 143.205 154.56C143.94 154.413 144.674 154.217 145.457 153.973V156.518C144.037 157.056 142.422 157.35 140.611 157.35C137.969 157.35 135.913 156.567 134.494 154.952C133.074 153.336 132.34 151.036 132.34 148.051C132.34 146.142 132.683 144.527 133.368 143.108C134.053 141.688 135.081 140.611 136.353 139.828C137.675 139.094 139.192 138.703 140.954 138.703C142.814 138.703 144.527 139.094 146.093 139.877L145.016 142.373C144.38 142.08 143.744 141.835 143.059 141.59C142.373 141.346 141.688 141.248 140.954 141.248Z" fill="#117BFD"/>
<path d="M156.028 143.108C156.616 143.108 157.105 143.156 157.496 143.254L157.203 145.995C156.811 145.897 156.371 145.848 155.93 145.848C154.756 145.848 153.826 146.24 153.092 146.974C152.358 147.757 152.015 148.736 152.015 149.959V157.154H149.078V143.401H151.379L151.77 145.848H151.917C152.358 145.016 152.945 144.38 153.679 143.891C154.413 143.401 155.147 143.108 156.028 143.108Z" fill="#117BFD"/>
<path d="M159.846 139.73C159.846 139.192 159.993 138.8 160.286 138.507C160.58 138.213 160.972 138.066 161.51 138.066C161.999 138.066 162.44 138.213 162.734 138.507C163.027 138.8 163.174 139.192 163.174 139.73C163.174 140.22 163.027 140.611 162.734 140.905C162.44 141.199 162.048 141.345 161.51 141.345C160.972 141.345 160.58 141.199 160.286 140.905C159.993 140.611 159.846 140.22 159.846 139.73ZM162.929 157.105H159.993V143.352H162.929V157.105Z" fill="#117BFD"/>
<path d="M174.137 143.108C175.85 143.108 177.171 143.744 178.15 144.967C179.129 146.191 179.57 147.953 179.57 150.204C179.57 152.456 179.08 154.217 178.101 155.49C177.122 156.762 175.801 157.35 174.039 157.35C172.277 157.35 170.956 156.714 169.977 155.49H169.781L169.243 157.105H167.04V137.773H169.977V142.373C169.977 142.716 169.977 143.205 169.928 143.891C169.879 144.576 169.879 144.967 169.83 145.163H169.977C170.956 143.793 172.326 143.108 174.137 143.108ZM173.354 145.506C172.179 145.506 171.347 145.848 170.809 146.533C170.27 147.219 170.026 148.393 170.026 150.008V150.204C170.026 151.868 170.27 153.092 170.809 153.826C171.347 154.56 172.228 154.952 173.403 154.952C174.431 154.952 175.214 154.56 175.752 153.728C176.29 152.896 176.535 151.721 176.535 150.155C176.584 147.072 175.507 145.506 173.354 145.506Z" fill="#117BFD"/>
<path d="M230.202 278.433V271.728H239.306C239.648 272.805 239.893 273.882 240.04 274.86C240.187 275.839 240.284 276.965 240.284 278.139C240.284 280.88 239.452 283.034 237.837 284.502C236.222 285.97 233.922 286.753 230.936 286.753C228 286.753 225.7 285.921 224.085 284.208C222.421 282.544 221.589 280.195 221.589 277.259C221.589 275.35 221.931 273.588 222.665 271.875L225.161 272.903C224.476 274.371 224.134 275.839 224.134 277.308C224.134 279.265 224.721 280.782 225.944 281.908C227.168 283.034 228.832 283.621 230.936 283.621C233.139 283.621 234.852 283.132 235.978 282.104C237.103 281.076 237.691 279.608 237.691 277.699C237.691 276.72 237.593 275.692 237.348 274.616H232.649V278.384H230.202V278.433Z" fill="#FFD700"/>
<path d="M234.461 268.889H231.964V262.478H234.461V268.889Z" fill="#FFD700"/>
<path d="M240.04 252.934V255.92H224.427V261.254H221.882V247.599H224.427V252.934H240.04Z" fill="#FFD700"/>
<path d="M222.665 245.299C222.127 245.299 221.735 245.152 221.441 244.859C221.148 244.565 221.001 244.174 221.001 243.635C221.001 243.146 221.148 242.705 221.441 242.412C221.735 242.118 222.127 241.971 222.665 241.971C223.154 241.971 223.546 242.118 223.84 242.412C224.133 242.705 224.28 243.097 224.28 243.635C224.28 244.174 224.133 244.565 223.84 244.859C223.546 245.152 223.154 245.299 222.665 245.299ZM240.04 242.216V245.152H226.287V242.216H240.04Z" fill="#FFD700"/>
<path d="M240.284 232.476C240.284 234.532 239.697 236.147 238.474 237.224C237.25 238.3 235.537 238.839 233.237 238.839C230.936 238.839 229.126 238.252 227.902 237.126C226.679 236 226.042 234.385 226.042 232.232C226.042 230.763 226.287 229.491 226.874 228.316L229.223 229.197C228.734 230.421 228.489 231.449 228.489 232.232C228.489 234.63 230.056 235.804 233.237 235.804C234.754 235.804 235.929 235.511 236.712 234.923C237.495 234.336 237.886 233.455 237.886 232.329C237.886 231.008 237.544 229.784 236.907 228.659H239.452C239.746 229.197 239.991 229.736 240.089 230.323C240.187 230.91 240.284 231.644 240.284 232.476Z" fill="#FFD700"/>
<path d="M232.796 222.59L230.741 220.926L226.336 216.766V213.389L232.258 218.919L240.089 213.046V216.472L234.069 220.877L235.39 222.492H240.089V225.38H220.756V222.492H230.202L232.845 222.639V222.59H232.796Z" fill="#FFD700"/>
<path d="M240.285 204.873C240.285 207.026 239.648 208.69 238.425 209.865C237.201 211.04 235.439 211.676 233.286 211.676C231.034 211.676 229.273 211.137 228 210.012C226.728 208.886 226.091 207.369 226.091 205.411C226.091 203.6 226.63 202.181 227.755 201.104C228.881 200.076 230.349 199.538 232.307 199.538H233.873V208.69C235.195 208.641 236.222 208.299 236.957 207.614C237.691 206.928 238.033 205.998 238.033 204.726C238.033 203.894 237.935 203.16 237.789 202.475C237.642 201.789 237.397 201.006 237.005 200.223H239.355C239.697 200.957 239.942 201.643 240.089 202.377C240.236 203.111 240.285 203.943 240.285 204.873ZM228.245 205.411C228.245 206.341 228.538 207.075 229.126 207.662C229.713 208.25 230.594 208.543 231.72 208.641V202.426C230.594 202.426 229.713 202.719 229.126 203.258C228.538 203.747 228.245 204.481 228.245 205.411Z" fill="#FFD700"/>
<path d="M237.935 191.071C237.935 190.337 237.837 189.652 237.593 188.918H239.795C239.942 189.26 240.04 189.652 240.138 190.19C240.235 190.68 240.284 191.218 240.284 191.756C240.284 194.546 238.816 195.916 235.929 195.916H228.538V197.776H227.266L226.189 195.77L223.301 194.791V192.98H226.336V189.064H228.538V192.98H235.88C236.565 192.98 237.103 192.784 237.446 192.441C237.788 192.099 237.935 191.658 237.935 191.071Z" fill="#FFD700"/>
<path d="M339.426 103.954L341.531 97.5911L350.194 100.43C350.194 101.604 350.096 102.632 349.949 103.66C349.753 104.639 349.508 105.715 349.166 106.841C348.285 109.435 346.865 111.197 344.859 112.127C342.852 113.057 340.454 113.008 337.615 112.127C334.826 111.197 332.917 109.68 331.889 107.575C330.861 105.471 330.763 103.024 331.693 100.185C332.281 98.3742 333.211 96.808 334.434 95.3887L336.441 97.1506C335.315 98.3252 334.532 99.6467 334.092 101.017C333.504 102.877 333.602 104.492 334.385 105.96C335.168 107.428 336.588 108.456 338.594 109.141C340.699 109.827 342.461 109.876 343.88 109.288C345.299 108.701 346.278 107.477 346.914 105.667C347.208 104.737 347.404 103.758 347.551 102.632L343.097 101.164L341.922 104.737L339.426 103.954Z" fill="#117BFD"/>
<path d="M342.51 85.3065C342.754 84.7682 342.999 84.3277 343.244 84.0341L345.593 85.4044C345.348 85.747 345.104 86.0896 344.908 86.5301C344.418 87.6068 344.37 88.6346 344.761 89.5645C345.153 90.5434 345.887 91.2775 347.012 91.7669L353.571 94.7035L352.347 97.3464L339.818 91.6691L340.748 89.5645L343.097 90.2008L343.146 90.054C342.608 89.3198 342.216 88.4878 342.118 87.6068C342.02 86.8727 342.167 86.0407 342.51 85.3065Z" fill="#117BFD"/>
<path d="M356.899 73.805C358.856 74.9307 360.08 76.3011 360.569 77.9162C361.108 79.5313 360.814 81.2443 359.786 83.0062C359.15 84.1319 358.318 84.9639 357.339 85.5023C356.36 86.0896 355.235 86.2854 354.06 86.2364C352.836 86.1385 351.613 85.747 350.389 85.0618C348.481 83.9361 347.257 82.5657 346.719 80.9506C346.229 79.3355 346.474 77.6226 347.502 75.8117C348.481 74.0987 349.851 73.022 351.515 72.6794C353.228 72.3857 355.039 72.7283 356.899 73.805ZM351.907 82.4678C354.647 84.034 356.605 83.8382 357.78 81.7827C358.954 79.776 358.122 77.9652 355.381 76.399C352.641 74.8328 350.732 75.0775 349.557 77.0842C348.921 78.1609 348.872 79.1398 349.264 80.0207C349.704 80.9017 350.585 81.7337 351.907 82.4678Z" fill="#117BFD"/>
<path d="M366.295 61.0311C368.106 62.4015 369.134 63.8697 369.477 65.5827C369.77 67.2468 369.33 68.9108 368.106 70.5749C367.323 71.6026 366.442 72.3368 365.366 72.7773C364.289 73.2177 363.212 73.3156 361.988 73.1199C360.814 72.8752 359.639 72.3368 358.514 71.5048C356.752 70.1833 355.675 68.6661 355.381 67.0021C355.088 65.338 355.528 63.674 356.801 62.0099C357.975 60.4438 359.443 59.5628 361.156 59.367C362.821 59.1713 364.533 59.7586 366.295 61.0311ZM360.276 69.0577C362.821 70.9664 364.778 70.9664 366.198 69.1066C367.568 67.2468 367.03 65.387 364.485 63.4782C361.988 61.5695 360.031 61.5695 358.611 63.4293C357.877 64.4081 357.682 65.387 357.975 66.2679C358.269 67.1978 359.052 68.1277 360.276 69.0577Z" fill="#117BFD"/>
<path d="M375.888 60.8353L362.331 55.1091L364.485 52.8577L372.169 56.3816C373.49 56.9689 374.469 57.5073 375.105 57.9967L375.154 57.9478C374.763 57.4583 374.175 56.5284 373.392 55.0601L369.575 47.523L371.728 45.2717L378.042 58.584L375.888 60.8353Z" fill="#117BFD"/>
<path d="M387.683 50.117C386.019 51.4874 384.355 52.0257 382.642 51.83C380.929 51.6342 379.363 50.7043 377.993 48.9913C376.573 47.2783 375.888 45.5164 375.937 43.8524C375.986 42.1394 376.769 40.6711 378.286 39.4475C379.706 38.3219 381.125 37.8324 382.642 37.9793C384.159 38.175 385.53 39.007 386.753 40.4753L387.732 41.6989L380.636 47.572C381.517 48.5998 382.446 49.1381 383.425 49.2849C384.404 49.4318 385.383 49.0892 386.313 48.3061C386.949 47.7677 387.488 47.2783 387.928 46.691C388.369 46.1526 388.809 45.4674 389.201 44.6844L390.718 46.5442C390.375 47.2783 389.984 47.9146 389.494 48.4529C389.005 48.9913 388.417 49.5297 387.683 50.117ZM379.657 41.1605C378.923 41.7478 378.531 42.433 378.482 43.265C378.433 44.0971 378.727 44.9291 379.314 45.9079L384.159 41.9436C383.425 41.0626 382.691 40.5732 381.908 40.4753C381.125 40.3285 380.391 40.5732 379.657 41.1605Z" fill="#117BFD"/>
<path d="M399.723 41.4542L390.62 25.6948L393.214 24.2265L402.317 39.986L399.723 41.4542Z" fill="#117BFD"/>
<path d="M416.804 33.134L414.112 34.3087L410.735 26.5758C410.295 25.5969 409.805 24.9607 409.218 24.667C408.631 24.3734 407.897 24.3734 407.065 24.7649C405.939 25.2543 405.254 25.9395 405.009 26.8205C404.764 27.7014 405.009 28.9739 405.694 30.5401L408.435 36.8047L405.743 37.9794L400.262 25.3033L402.366 24.3733L403.443 25.8416L403.59 25.7927C403.688 25.0096 404.03 24.3244 404.617 23.6882C405.156 23.0519 405.89 22.5625 406.722 22.1709C409.756 20.8495 411.91 21.7305 413.28 24.8138L416.804 33.134Z" fill="#117BFD"/>
<path d="M424.537 28.7291C425.222 28.5334 425.858 28.2397 426.495 27.7992L427.082 29.9038C426.788 30.1485 426.446 30.3442 425.956 30.589C425.467 30.8337 424.977 31.0294 424.488 31.1763C421.845 31.9593 420.083 30.9316 419.3 28.0929L417.293 20.9473L415.483 21.4857L415.14 20.2621L416.804 18.696L416.951 15.6126L418.664 15.1232L419.496 18.0597L423.264 16.983L423.852 19.0875L420.083 20.1642L422.09 27.2609C422.286 27.9461 422.579 28.3865 423.02 28.6313C423.46 28.876 423.95 28.876 424.537 28.7291Z" fill="#117BFD"/>
<path d="M435.255 28.9739C433.151 29.3165 431.389 28.9249 430.018 27.8971C428.648 26.8693 427.767 25.2543 427.473 23.1008C427.131 20.8984 427.424 19.0386 428.305 17.6192C429.235 16.1999 430.655 15.3189 432.563 15.0253C434.374 14.7316 435.843 15.0742 437.066 16.0041C438.29 16.934 439.024 18.3534 439.317 20.2621L439.562 21.8283L430.508 23.1987C430.753 24.5201 431.242 25.45 432.025 26.0863C432.808 26.6736 433.787 26.9183 435.011 26.7225C435.794 26.5757 436.528 26.4289 437.213 26.1352C437.898 25.8905 438.583 25.499 439.317 25.0585L439.66 27.4077C439.024 27.8482 438.339 28.1908 437.653 28.4355C436.968 28.6802 436.185 28.827 435.255 28.9739ZM432.906 17.1298C431.976 17.2766 431.291 17.6682 430.85 18.3534C430.41 19.0386 430.165 19.9195 430.263 21.0452L436.43 20.1153C436.234 18.9896 435.843 18.2066 435.206 17.6682C434.57 17.1298 433.836 17.0319 432.906 17.1298Z" fill="#117BFD"/>
<path d="M449.938 13.7039C450.525 13.7039 451.015 13.7039 451.406 13.8017L451.162 16.5425C450.721 16.4446 450.33 16.3957 449.889 16.4446C448.715 16.4936 447.785 16.8851 447.051 17.6682C446.365 18.4513 446.023 19.4301 446.023 20.6537L446.17 27.8482L443.233 27.8971L442.939 14.1444L445.24 14.0954L445.68 16.4936H445.827C446.267 15.6616 446.855 15.0253 447.589 14.487C448.323 13.9975 449.106 13.7039 449.938 13.7039Z" fill="#117BFD"/>
<path d="M465.648 29.1207L462.712 28.7781L463.691 20.4089C463.838 19.3322 463.691 18.5491 463.348 17.9618C463.006 17.3745 462.32 17.0319 461.439 16.934C460.216 16.7872 459.286 17.0319 458.601 17.7171C457.965 18.3533 457.524 19.5769 457.328 21.241L456.545 28.0439L453.658 27.7014L455.273 14.0464L457.524 14.2911L457.72 16.1509H457.867C458.356 15.5636 458.992 15.1231 459.775 14.8295C460.558 14.5848 461.439 14.4869 462.369 14.5848C465.648 14.9763 467.068 16.8361 466.676 20.1642L465.648 29.1207Z" fill="#117BFD"/>
<path d="M474.703 31.7147C472.647 31.1274 471.228 30.0996 470.396 28.5335C469.564 27.0163 469.466 25.2054 470.053 23.1009C470.641 20.9474 471.668 19.3813 473.088 18.4513C474.507 17.5214 476.171 17.3257 478.031 17.864C479.793 18.3535 481.016 19.2834 481.702 20.6048C482.436 21.9263 482.534 23.5414 481.995 25.4012L481.555 26.9184L472.745 24.4223C472.403 25.6948 472.5 26.8205 472.941 27.6525C473.381 28.4845 474.213 29.1208 475.437 29.4634C476.22 29.6592 476.954 29.806 477.688 29.8549C478.423 29.9039 479.206 29.8549 480.087 29.7081L479.45 32.0084C478.667 32.1552 477.933 32.1552 477.15 32.1063C476.367 32.0573 475.584 31.9594 474.703 31.7147ZM477.444 19.9685C476.563 19.7238 475.731 19.8217 475.045 20.2133C474.36 20.6048 473.773 21.3879 473.381 22.4157L479.401 24.1287C479.695 23.0519 479.646 22.122 479.303 21.4368C478.961 20.7027 478.325 20.2133 477.444 19.9685Z" fill="#117BFD"/>
<path d="M488.015 34.0639C488.651 34.3576 489.386 34.5044 490.12 34.6023L489.288 36.6089C488.945 36.6089 488.505 36.56 488.015 36.4621C487.526 36.3642 486.987 36.1684 486.498 35.9726C483.953 34.8959 483.219 33.0361 484.345 30.3443L487.232 23.4923L485.519 22.7582L486.009 21.5836L488.26 21.3878L490.315 19.0875L491.98 19.7727L490.805 22.6114L494.427 24.1286L493.546 26.1842L489.924 24.667L487.085 31.4699C486.792 32.1062 486.792 32.6446 486.987 33.134C487.183 33.6234 487.477 33.8192 488.015 34.0639Z" fill="#117BFD"/>
<path d="M514.444 41.4542C512.78 43.9502 510.773 45.3695 508.522 45.7611C506.271 46.1526 503.824 45.4674 501.23 43.7055L497.021 40.8668L507.25 25.8415L511.899 28.9738C514.297 30.5889 515.717 32.4977 516.157 34.7001C516.598 36.8536 516.01 39.1049 514.444 41.4542ZM511.801 39.7901C514.248 36.1684 513.808 33.2318 510.431 30.9805L508.326 29.5122L500.936 40.4264L502.698 41.601C506.222 44.0481 509.305 43.4608 511.801 39.7901Z" fill="#117BFD"/>
<path d="M515.668 55.3539C514.102 53.8856 513.27 52.3194 513.27 50.5575C513.221 48.8445 513.955 47.1315 515.423 45.5654C516.94 43.9013 518.555 43.0204 520.268 42.8246C521.981 42.6288 523.547 43.2161 524.967 44.5376C526.288 45.7611 526.973 47.1315 527.022 48.6487C527.071 50.166 526.386 51.6342 525.114 53.0536L524.037 54.2282L517.283 48.0125C516.402 49.0403 515.961 50.0191 516.01 50.998C516.059 51.9768 516.5 52.9067 517.381 53.7387C517.968 54.2771 518.604 54.7665 519.192 55.1091C519.828 55.4517 520.513 55.7943 521.345 56.088L519.73 57.8499C518.996 57.6052 518.262 57.3115 517.674 56.92C516.989 56.5284 516.353 55.9901 515.668 55.3539ZM523.401 46.1527C522.715 45.5164 521.981 45.2228 521.149 45.2717C520.317 45.3206 519.534 45.7122 518.653 46.4953L523.254 50.7043C523.988 49.8723 524.379 49.0403 524.379 48.2572C524.428 47.4741 524.086 46.7889 523.401 46.1527Z" fill="#117BFD"/>
<path d="M525.065 65.2891C523.694 63.723 523.156 62.1079 523.352 60.4928C523.547 58.8777 524.526 57.3115 526.239 55.8433C528.001 54.326 529.714 53.5919 531.378 53.6408C533.042 53.6898 534.608 54.5218 535.979 56.1369C536.909 57.2136 537.594 58.3882 537.937 59.6118L535.587 60.4928C535.147 59.2203 534.657 58.3393 534.119 57.7031C532.553 55.8922 530.595 56.039 528.197 58.0946C527.022 59.1224 526.337 60.1012 526.141 61.0311C525.946 62.01 526.239 62.8909 526.973 63.7719C527.805 64.7507 528.882 65.4849 530.106 65.9254L528.197 67.5894C527.61 67.3937 527.071 67.1 526.631 66.7574C526.141 66.4148 525.603 65.9254 525.065 65.2891Z" fill="#117BFD"/>
<path d="M542.048 76.3501C540.188 77.6226 538.426 78.112 536.713 77.8673C535 77.6226 533.581 76.6437 532.455 74.9797C531.721 73.903 531.329 72.8262 531.231 71.7005C531.134 70.5749 531.427 69.4492 532.015 68.4214C532.602 67.3936 533.483 66.4637 534.706 65.6317C536.566 64.3592 538.328 63.8698 539.992 64.1145C541.656 64.3592 543.076 65.338 544.25 67.051C545.376 68.7151 545.718 70.3302 545.327 72.0432C544.935 73.6582 543.81 75.1265 542.048 76.3501ZM536.37 68.0788C533.727 69.8897 533.091 71.7495 534.413 73.6582C535.734 75.567 537.692 75.616 540.286 73.854C542.88 72.0921 543.516 70.2323 542.195 68.3235C541.509 67.2958 540.677 66.8063 539.698 66.8063C538.72 66.8063 537.643 67.2468 536.37 68.0788Z" fill="#117BFD"/>
<path d="M539.65 86.9217C538.867 85.4045 538.818 83.9362 539.454 82.5169C540.09 81.0975 541.46 79.874 543.418 78.8462C545.425 77.8184 547.187 77.4268 548.753 77.7205C550.319 78.0141 551.494 78.8951 552.277 80.4613C553.109 82.0764 553.158 83.5936 552.424 85.0618L552.472 85.2087C553.304 84.6214 553.941 84.2298 554.43 83.9362L558.884 81.6359L560.254 84.2298L543.076 93.1373L541.999 91.1307L543.369 89.8582L543.32 89.7603C541.754 89.4177 540.482 88.5368 539.65 86.9217ZM542.097 86.5301C542.635 87.6068 543.369 88.1942 544.201 88.3899C545.033 88.5857 546.159 88.292 547.529 87.6069L547.872 87.4111C549.389 86.628 550.368 85.796 550.759 84.964C551.151 84.132 551.053 83.1531 550.515 82.1253C550.025 81.1954 549.291 80.706 548.312 80.6081C547.334 80.5102 546.159 80.8039 544.789 81.4891C543.418 82.1742 542.537 82.9573 542.048 83.7894C541.607 84.6703 541.607 85.6002 542.097 86.5301Z" fill="#117BFD"/>
<path d="M546.55 102.143C545.767 100.136 545.767 98.3741 546.501 96.808C547.235 95.2418 548.606 94.0672 550.661 93.2842C552.766 92.5011 554.626 92.3542 556.192 92.9416C557.758 93.5289 558.933 94.7524 559.667 96.5633C560.303 98.2763 560.303 99.7935 559.667 101.164C559.031 102.534 557.807 103.562 555.996 104.247L554.528 104.835L551.249 96.2696C550.025 96.808 549.193 97.4932 548.753 98.3741C548.312 99.2551 548.312 100.283 548.802 101.458C549.095 102.192 549.438 102.877 549.829 103.513C550.221 104.1 550.71 104.737 551.347 105.324L549.144 106.156C548.557 105.618 548.067 105.03 547.676 104.394C547.284 103.758 546.844 103.024 546.55 102.143ZM557.562 97.3464C557.22 96.4654 556.681 95.8781 555.947 95.5844C555.213 95.2908 554.283 95.2908 553.206 95.5844L555.458 101.409C556.534 100.968 557.22 100.43 557.562 99.6956C557.905 98.9615 557.905 98.1784 557.562 97.3464Z" fill="#117BFD"/>
<path d="M564.855 112.763C565.001 113.351 565.099 113.791 565.148 114.183L562.456 114.623C562.456 114.183 562.359 113.791 562.261 113.351C561.967 112.225 561.331 111.442 560.401 110.952C559.471 110.463 558.443 110.365 557.269 110.708L550.368 112.665L549.585 109.876L562.799 106.156L563.435 108.358L561.184 109.386L561.233 109.533C562.163 109.729 562.946 110.12 563.582 110.708C564.218 111.295 564.61 111.931 564.855 112.763Z" fill="#117BFD"/>
<path d="M648.889 118.783L650.308 112.274L659.216 114.232C659.313 115.357 659.362 116.434 659.265 117.462C659.216 118.49 659.02 119.566 658.775 120.692C658.188 123.384 656.915 125.293 655.007 126.369C653.098 127.495 650.7 127.691 647.812 127.054C644.973 126.418 642.918 125.097 641.645 123.09C640.373 121.083 640.079 118.636 640.715 115.749C641.107 113.889 641.89 112.225 642.967 110.708L645.169 112.274C644.19 113.546 643.554 114.917 643.211 116.385C642.771 118.294 643.065 119.909 643.995 121.279C644.924 122.65 646.442 123.531 648.497 124.02C650.651 124.509 652.413 124.363 653.783 123.629C655.153 122.894 655.985 121.573 656.426 119.713C656.622 118.783 656.72 117.755 656.72 116.63L652.168 115.602L651.336 119.273L648.889 118.783Z" fill="#FFD700"/>
<path d="M650.063 99.9404C650.259 99.402 650.455 98.9126 650.651 98.6189L653.147 99.7446C652.902 100.087 652.755 100.479 652.608 100.919C652.217 102.045 652.315 103.024 652.804 103.954C653.293 104.884 654.125 105.52 655.3 105.911L662.103 108.163L661.173 110.952L648.155 106.597L648.889 104.443L651.287 104.835L651.336 104.688C650.7 104.003 650.259 103.22 650.063 102.387C649.868 101.555 649.77 100.772 650.063 99.9404Z" fill="#FFD700"/>
<path d="M663.131 87.0685C665.187 87.9984 666.557 89.222 667.242 90.7881C667.927 92.3543 667.878 94.0673 666.998 95.9271C666.459 97.1017 665.774 98.0316 664.844 98.6679C663.914 99.3041 662.837 99.6956 661.663 99.7446C660.439 99.7935 659.216 99.4999 657.894 98.9615C655.839 98.0805 654.517 96.808 653.832 95.2908C653.147 93.7736 653.245 92.0117 654.077 90.1029C654.86 88.2921 656.083 87.1175 657.747 86.5791C659.363 85.9918 661.173 86.1876 663.131 87.0685ZM659.118 96.1718C662.005 97.4443 663.963 97.0038 664.893 94.8993C665.823 92.7948 664.844 91.0818 661.957 89.8093C659.069 88.5368 657.16 88.9773 656.23 91.1307C655.741 92.2564 655.741 93.2352 656.279 94.0673C656.769 94.8503 657.698 95.5845 659.118 96.1718Z" fill="#FFD700"/>
<path d="M671.06 73.3156C673.018 74.4413 674.192 75.8606 674.731 77.4757C675.22 79.0908 674.975 80.8038 673.898 82.5658C673.262 83.6914 672.43 84.5234 671.402 85.0618C670.424 85.6002 669.298 85.8449 668.074 85.747C666.851 85.6491 665.627 85.2576 664.404 84.5235C662.495 83.3978 661.271 82.0274 660.782 80.4123C660.293 78.7972 660.586 77.0842 661.614 75.2733C662.642 73.5604 663.963 72.5326 665.676 72.19C667.389 71.8474 669.151 72.19 671.06 73.3156ZM665.97 81.9295C668.711 83.5446 670.668 83.3489 671.843 81.2933C673.018 79.2866 672.234 77.4757 669.494 75.8607C666.802 74.2456 664.844 74.4903 663.67 76.4969C663.033 77.5736 662.935 78.5035 663.376 79.4334C663.816 80.3144 664.648 81.1464 665.97 81.9295Z" fill="#FFD700"/>
<path d="M680.554 71.9453L666.41 67.8831L668.27 65.436L676.345 67.981C677.716 68.4215 678.743 68.813 679.478 69.2535L679.526 69.1556C679.086 68.7151 678.401 67.8342 677.422 66.5127L672.723 59.465L674.583 56.969L682.414 69.4003L680.554 71.9453Z" fill="#FFD700"/>
<path d="M675.22 56.1858L677.373 53.8366L684.959 57.1158C686.036 57.5562 687.015 58.0946 687.847 58.633L687.896 58.584C687.602 58.2414 687.308 57.752 686.966 57.1647C686.623 56.5774 685.106 53.6898 682.365 48.5508L684.519 46.2505L691.86 61.178C693.231 63.9187 693.035 66.1701 691.322 68.0299C690.881 68.5193 690.392 68.9109 689.854 69.2535L688.141 67.6873C688.532 67.4426 688.875 67.1 689.266 66.7085C690.245 65.6807 690.294 64.4082 689.511 62.891L688.924 61.6185L675.22 56.1858Z" fill="#FFD700"/>
<path d="M709.039 43.9992L700.866 50.2149L689.903 35.7279L698.076 29.5122L699.593 31.5189L693.769 35.9237L696.755 39.888L702.236 35.7769L703.753 37.7346L698.272 41.8457L701.698 46.3973L707.522 41.9925L709.039 43.9992Z" fill="#FFD700"/>
<path d="M722.058 36.3642L719.513 37.7835L715.352 30.4422C714.814 29.5123 714.276 28.925 713.639 28.6802C713.003 28.4355 712.269 28.5334 711.486 28.9739C710.409 29.5612 709.822 30.3443 709.675 31.2742C709.528 32.2041 709.871 33.3787 710.752 34.8959L714.129 40.8669L711.584 42.2862L704.83 30.2953L706.836 29.1697L708.06 30.5401L708.207 30.4911C708.256 29.708 708.501 28.9739 708.99 28.2887C709.479 27.6035 710.116 27.0162 710.948 26.5757C713.835 24.9606 716.087 25.5969 717.751 28.5334L722.058 36.3642Z" fill="#FFD700"/>
<path d="M729.301 31.0784C729.937 30.7848 730.574 30.4422 731.161 29.9528L731.993 32.0083C731.748 32.2531 731.406 32.5467 730.965 32.7914C730.525 33.0851 730.084 33.3298 729.546 33.5255C727.001 34.6023 725.141 33.7703 724.064 31.0784L721.226 24.2265L719.513 24.9606L719.023 23.786L720.491 22.0241L720.296 18.9407L721.96 18.2555L723.134 21.0942L726.756 19.577L727.588 21.6326L723.966 23.1498L726.756 29.9528C727.001 30.589 727.392 31.0295 727.833 31.1763C728.273 31.3231 728.763 31.2742 729.301 31.0784Z" fill="#FFD700"/>
<path d="M740.019 30.0506C737.964 30.6379 736.202 30.4911 734.685 29.6101C733.167 28.7291 732.14 27.2609 731.552 25.1564C730.965 23.0029 731.014 21.1431 731.748 19.6259C732.482 18.1087 733.804 17.0319 735.663 16.5425C737.425 16.0531 738.943 16.1999 740.264 16.983C741.586 17.7661 742.466 19.0875 743.005 20.9473L743.445 22.4645L734.636 24.9117C735.027 26.1842 735.663 27.0651 736.495 27.6035C737.327 28.0929 738.355 28.1908 739.53 27.8482C740.313 27.6524 740.998 27.3588 741.634 27.0162C742.271 26.6736 742.907 26.2331 743.592 25.6947L744.228 27.995C743.641 28.5334 743.005 28.9249 742.32 29.2675C741.683 29.5122 740.9 29.8059 740.019 30.0506ZM736.251 18.5981C735.37 18.8428 734.734 19.3322 734.342 20.0663C733.95 20.8005 733.853 21.6815 734.048 22.8071L740.068 21.1431C739.726 20.0664 739.236 19.2833 738.6 18.8917C737.915 18.4513 737.132 18.3534 736.251 18.5981Z" fill="#FFD700"/>
<path d="M752.696 13.1166C753.283 13.0187 753.773 13.0188 754.164 13.0188L754.262 15.7595C753.821 15.7106 753.381 15.7106 752.94 15.8085C751.766 15.9553 750.885 16.4937 750.298 17.3746C749.71 18.2556 749.466 19.2834 749.661 20.458L750.689 27.5546L747.802 27.9951L745.795 14.3891L748.046 14.0465L748.78 16.3958H748.927C749.27 15.5148 749.759 14.7807 750.396 14.1934C751.081 13.6061 751.864 13.2145 752.696 13.1166Z" fill="#FFD700"/>
<path d="M763.267 24.3244C764.001 24.2754 764.687 24.1775 765.372 23.8839L765.47 26.0863C765.176 26.2331 764.736 26.38 764.246 26.4778C763.757 26.5757 763.218 26.6736 762.68 26.6736C759.939 26.7715 758.471 25.4011 758.373 22.4646L758.079 15.0742L756.22 15.1721L756.171 13.8996L758.128 12.725L759.009 9.78847L760.82 9.69058L760.967 12.725L764.882 12.5782L764.98 14.7806L761.065 14.9274L761.359 22.2688C761.407 22.954 761.603 23.4924 761.946 23.786C762.239 24.2265 762.68 24.3733 763.267 24.3244Z" fill="#FFD700"/>
<path d="M776.286 27.0652L775.845 25.1075H775.747C775.013 25.8905 774.328 26.38 773.594 26.6247C772.909 26.8694 772.028 26.9673 771 26.8694C769.629 26.7715 768.651 26.331 767.916 25.499C767.231 24.716 766.938 23.6392 767.035 22.3178C767.133 20.8984 767.77 19.8706 768.895 19.2344C770.021 18.5981 771.636 18.3534 773.79 18.4513L776.139 18.5492L776.188 17.8151C776.237 16.9341 776.09 16.2489 775.747 15.8084C775.356 15.319 774.768 15.0743 773.887 15.0253C773.202 14.9764 772.517 15.0253 771.832 15.1722C771.147 15.319 770.51 15.5148 769.923 15.7595L769.14 13.606C769.923 13.2634 770.755 13.0677 771.636 12.9208C772.517 12.774 773.398 12.774 774.181 12.8229C775.943 12.9698 777.215 13.4592 778.047 14.2912C778.879 15.1232 779.222 16.3468 779.075 17.9619L778.292 27.212L776.286 27.0652ZM772.077 24.7159C773.153 24.8138 773.985 24.5691 774.67 24.0308C775.356 23.4924 775.747 22.7093 775.845 21.6326L775.943 20.4579L774.181 20.409C772.811 20.3601 771.783 20.5069 771.147 20.8495C770.51 21.1921 770.119 21.8283 770.07 22.6603C770.021 23.2477 770.168 23.7371 770.51 24.1286C770.853 24.4223 771.391 24.667 772.077 24.7159Z" fill="#FFD700"/>
<path d="M784.753 28.4845L781.865 27.9461L784.459 14.438L787.347 14.9764L784.753 28.4845ZM785.046 10.8163C785.144 10.3269 785.34 9.9353 785.682 9.69059C786.025 9.44588 786.466 9.39696 786.955 9.49484C787.444 9.59273 787.836 9.78849 788.032 10.1311C788.276 10.4737 788.325 10.8652 788.227 11.4036C788.13 11.893 787.934 12.2356 787.591 12.4803C787.249 12.725 786.857 12.774 786.319 12.6761C785.78 12.5782 785.438 12.3335 785.193 12.0399C784.997 11.6973 784.948 11.3057 785.046 10.8163Z" fill="#FFD700"/>
<path d="M799.925 32.7914L797.135 31.9105L799.68 23.835C800.023 22.8072 800.023 22.0241 799.778 21.3878C799.533 20.7516 798.946 20.3111 798.065 20.0175C796.891 19.6259 795.912 19.7238 795.129 20.2622C794.346 20.8005 793.709 21.8773 793.22 23.4924L791.164 30.0017L788.375 29.1207L792.535 16.0042L794.737 16.6894L794.59 18.5492L794.737 18.5981C795.324 18.1087 796.058 17.8151 796.89 17.6682C797.723 17.5703 798.604 17.6682 799.484 17.9129C802.617 18.8918 803.694 20.9963 802.666 24.2265L799.925 32.7914Z" fill="#FFD700"/>
<path d="M813.188 39.3008L810.643 37.8815L814.755 30.4422C815.244 29.5123 815.489 28.7293 815.391 28.093C815.293 27.4567 814.852 26.9184 814.118 26.5268C813.139 25.9885 812.209 25.8906 811.426 26.2821C810.594 26.6737 809.811 27.6036 808.979 29.1208L805.651 35.0918L803.106 33.6724L809.762 21.6326L811.769 22.7583L811.28 24.5202L811.426 24.5691C812.063 24.1776 812.797 23.9818 813.629 24.0308C814.461 24.0797 815.244 24.2755 815.978 24.716C817.838 25.7438 818.719 27.0652 818.621 28.6314L818.817 28.7292C819.502 28.3377 820.236 28.1419 821.068 28.1419C821.9 28.1419 822.732 28.3866 823.564 28.8761C824.983 29.6591 825.864 30.589 826.109 31.7147C826.354 32.7915 826.06 34.1129 825.277 35.5812L820.97 43.412L818.425 41.9926L822.536 34.5534C823.026 33.6235 823.27 32.8404 823.124 32.2041C822.977 31.5679 822.585 31.0295 821.851 30.638C820.872 30.0996 819.942 30.0017 819.159 30.3443C818.376 30.6869 817.593 31.519 816.908 32.8404L813.188 39.3008Z" fill="#FFD700"/>
<path d="M827.773 49.7255C826.109 48.3551 825.228 46.8378 825.081 45.1249C824.934 43.4119 825.571 41.6989 826.941 39.9859C828.36 38.224 829.927 37.2451 831.591 36.9515C833.255 36.6578 834.87 37.1473 836.387 38.3708C837.806 39.4965 838.54 40.8669 838.687 42.3841C838.785 43.9013 838.247 45.4185 837.023 46.8868L836.044 48.1103L828.948 42.3351C828.116 43.4119 827.773 44.4397 827.822 45.4185C827.871 46.3973 828.409 47.2783 829.388 48.0614C830.024 48.5508 830.661 48.9913 831.297 49.3339C831.933 49.6765 832.667 49.9212 833.548 50.1659L832.031 52.0257C831.248 51.83 830.563 51.5853 829.878 51.1937C829.192 50.8022 828.507 50.3128 827.773 49.7255ZM834.968 40.0838C834.233 39.4965 833.499 39.2518 832.667 39.3497C831.884 39.4475 831.052 39.888 830.269 40.72L835.114 44.6844C835.8 43.8034 836.142 42.9714 836.093 42.1883C836.044 41.3563 835.702 40.6711 834.968 40.0838Z" fill="#FFD700"/>
<path d="M842.309 63.6251L840.302 61.4716L846.469 55.6964C847.252 54.9623 847.693 54.2771 847.79 53.5919C847.888 52.9067 847.595 52.2704 846.958 51.5853C846.126 50.7043 845.245 50.2638 844.315 50.3617C843.386 50.4596 842.309 51.0469 841.036 52.2215L836.044 56.92L834.038 54.7665L844.071 45.3696L845.637 47.0336L844.609 48.5508L844.707 48.6487C845.49 48.5019 846.224 48.5998 847.007 48.8934C847.79 49.1871 848.476 49.7254 849.112 50.3617C851.363 52.7599 851.265 55.1091 848.818 57.4094L842.309 63.6251Z" fill="#FFD700"/>
<path d="M849.259 69.3514C849.7 69.9387 850.189 70.4281 850.825 70.8686L849.063 72.19C848.77 71.9943 848.427 71.7496 848.035 71.407C847.644 71.0644 847.301 70.6728 846.959 70.2323C845.295 68.0299 845.637 66.0233 847.987 64.3103L853.909 59.8565L852.783 58.3393L853.811 57.5563L855.866 58.5351L858.803 57.6052L859.88 59.0245L857.432 60.8354L859.782 63.9677L858.02 65.2892L855.67 62.1568L849.797 66.5617C849.21 67.0021 848.916 67.4426 848.867 67.932C848.77 68.4215 848.916 68.862 849.259 69.3514Z" fill="#FFD700"/>
<path d="M802.861 165.523H809.567V174.626C808.49 174.969 807.413 175.214 806.434 175.361C805.455 175.507 804.33 175.605 803.155 175.605C800.414 175.605 798.261 174.773 796.793 173.158C795.324 171.543 794.541 169.243 794.541 166.257C794.541 163.321 795.373 161.02 797.086 159.405C798.799 157.79 801.1 156.909 804.036 156.909C805.945 156.909 807.707 157.252 809.42 157.986L808.392 160.482C806.924 159.797 805.455 159.454 803.987 159.454C802.029 159.454 800.512 160.042 799.387 161.265C798.261 162.489 797.674 164.153 797.674 166.257C797.674 168.46 798.163 170.173 799.191 171.298C800.219 172.424 801.687 173.011 803.596 173.011C804.574 173.011 805.602 172.913 806.679 172.669V167.97H802.91V165.523H802.861Z" fill="#117BFD"/>
<path d="M812.406 169.781V167.285H818.817V169.781H812.406Z" fill="#117BFD"/>
<path d="M832.569 170.466C832.569 172.081 831.982 173.354 830.808 174.284C829.633 175.214 828.018 175.654 825.962 175.654C823.907 175.654 822.243 175.312 820.921 174.675V171.886C821.753 172.277 822.634 172.571 823.564 172.816C824.494 173.06 825.375 173.158 826.158 173.158C827.333 173.158 828.214 172.913 828.752 172.473C829.29 172.032 829.584 171.445 829.584 170.662C829.584 169.977 829.339 169.39 828.801 168.949C828.262 168.509 827.235 167.921 825.62 167.285C823.956 166.6 822.781 165.866 822.096 164.985C821.411 164.104 821.068 163.076 821.068 161.901C821.068 160.384 821.606 159.21 822.683 158.329C823.76 157.448 825.228 157.007 827.039 157.007C828.801 157.007 830.514 157.399 832.227 158.133L831.297 160.58C829.682 159.895 828.263 159.552 826.99 159.552C826.011 159.552 825.277 159.748 824.788 160.188C824.298 160.629 824.053 161.167 824.053 161.852C824.053 162.342 824.151 162.733 824.347 163.076C824.543 163.419 824.885 163.712 825.326 164.006C825.766 164.3 826.598 164.691 827.773 165.181C829.095 165.719 830.073 166.257 830.71 166.747C831.346 167.236 831.786 167.775 832.08 168.362C832.423 168.9 832.569 169.634 832.569 170.466Z" fill="#117BFD"/>
<path d="M847.938 168.46C847.938 170.711 847.35 172.473 846.225 173.697C845.05 174.969 843.484 175.605 841.428 175.605C840.156 175.605 839.03 175.312 838.002 174.724C837.024 174.137 836.241 173.305 835.751 172.228C835.213 171.152 834.968 169.879 834.968 168.46C834.968 166.208 835.555 164.495 836.681 163.223C837.807 161.95 839.422 161.363 841.526 161.363C843.533 161.363 845.099 161.999 846.225 163.272C847.35 164.544 847.938 166.306 847.938 168.46ZM837.953 168.46C837.953 171.641 839.128 173.207 841.477 173.207C843.778 173.207 844.952 171.641 844.952 168.46C844.952 165.327 843.778 163.761 841.428 163.761C840.205 163.761 839.324 164.153 838.785 164.985C838.198 165.817 837.953 166.942 837.953 168.46Z" fill="#117BFD"/>
<path d="M854.202 175.361H851.266V156.028H854.202V175.361Z" fill="#117BFD"/>
<path d="M866.976 175.361L866.389 173.452H866.291C865.606 174.284 864.97 174.871 864.284 175.165C863.599 175.458 862.767 175.605 861.69 175.605C860.32 175.605 859.292 175.263 858.509 174.529C857.775 173.794 857.384 172.767 857.384 171.445C857.384 170.026 857.922 168.949 858.95 168.215C859.978 167.481 861.593 167.089 863.746 167.04L866.095 166.943V166.257C866.095 165.376 865.9 164.74 865.459 164.3C865.019 163.859 864.431 163.663 863.55 163.663C862.865 163.663 862.18 163.761 861.544 163.957C860.907 164.153 860.271 164.398 859.684 164.691L858.754 162.587C859.488 162.195 860.32 161.901 861.201 161.706C862.082 161.51 862.914 161.412 863.697 161.412C865.459 161.412 866.78 161.804 867.661 162.538C868.542 163.321 868.983 164.495 868.983 166.111V175.361H866.976ZM862.669 173.403C863.746 173.403 864.578 173.109 865.214 172.522C865.851 171.935 866.193 171.103 866.193 170.026V168.851L864.431 168.949C863.061 168.998 862.033 169.243 861.446 169.634C860.858 170.026 860.516 170.662 860.516 171.494C860.516 172.13 860.712 172.571 861.054 172.913C861.397 173.256 861.935 173.403 862.669 173.403Z" fill="#117BFD"/>
<path d="M880.141 161.363C880.729 161.363 881.218 161.412 881.61 161.51L881.316 164.251C880.925 164.153 880.484 164.104 880.044 164.104C878.869 164.104 877.939 164.495 877.205 165.229C876.471 166.013 876.128 166.991 876.128 168.215V175.41H873.192V161.657H875.492L875.883 164.104H876.03C876.471 163.272 877.058 162.636 877.792 162.146C878.477 161.608 879.309 161.363 880.141 161.363Z" fill="#117BFD"/>
<defs>
<filter id="filter0_d_41_226" x="625.353" y="0" width="256.344" height="145.689" filterUnits="userSpaceOnUse" color-interpolation-filters="sRGB">
<feFlood flood-opacity="0" result="BackgroundImageFix"/>
<feColorMatrix in="SourceAlpha" type="matrix" values="0 0 0 0 0 0 0 0 0 0 0 0 0 0 0 0 0 0 127 0" result="hardAlpha"/>
<feOffset dx="9.63433" dy="3.85373"/>
<feComposite in2="hardAlpha" operator="out"/>
<feColorMatrix type="matrix" values="0 0 0 0 0 0 0 0 0 0 0 0 0 0 0 0 0 0 0.25 0"/>
<feBlend mode="normal" in2="BackgroundImageFix" result="effect1_dropShadow_41_226"/>
<feBlend mode="normal" in="SourceGraphic" in2="effect1_dropShadow_41_226" result="shape"/>
</filter>
<filter id="filter1_d_41_226" x="786.759" y="149.764" width="111.875" height="38.7986" filterUnits="userSpaceOnUse" color-interpolation-filters="sRGB">
<feFlood flood-opacity="0" result="BackgroundImageFix"/>
<feColorMatrix in="SourceAlpha" type="matrix" values="0 0 0 0 0 0 0 0 0 0 0 0 0 0 0 0 0 0 127 0" result="hardAlpha"/>
<feOffset dx="9.63433" dy="3.85373"/>
<feComposite in2="hardAlpha" operator="out"/>
<feColorMatrix type="matrix" values="0 0 0 0 0 0 0 0 0 0 0 0 0 0 0 0 0 0 0.25 0"/>
<feBlend mode="normal" in2="BackgroundImageFix" result="effect1_dropShadow_41_226"/>
<feBlend mode="normal" in="SourceGraphic" in2="effect1_dropShadow_41_226" result="shape"/>
</filter>
<filter id="filter2_d_41_226" x="307.605" y="0" width="290.919" height="153.52" filterUnits="userSpaceOnUse" color-interpolation-filters="sRGB">
<feFlood flood-opacity="0" result="BackgroundImageFix"/>
<feColorMatrix in="SourceAlpha" type="matrix" values="0 0 0 0 0 0 0 0 0 0 0 0 0 0 0 0 0 0 127 0" result="hardAlpha"/>
<feOffset dx="9.63433" dy="3.85373"/>
<feComposite in2="hardAlpha" operator="out"/>
<feColorMatrix type="matrix" values="0 0 0 0 0 0 0 0 0 0 0 0 0 0 0 0 0 0 0.25 0"/>
<feBlend mode="normal" in2="BackgroundImageFix" result="effect1_dropShadow_41_226"/>
<feBlend mode="normal" in="SourceGraphic" in2="effect1_dropShadow_41_226" result="shape"/>
</filter>
<filter id="filter3_d_41_226" x="209.239" y="176.486" width="57.2063" height="128.118" filterUnits="userSpaceOnUse" color-interpolation-filters="sRGB">
<feFlood flood-opacity="0" result="BackgroundImageFix"/>
<feColorMatrix in="SourceAlpha" type="matrix" values="0 0 0 0 0 0 0 0 0 0 0 0 0 0 0 0 0 0 127 0" result="hardAlpha"/>
<feOffset dx="9.63433" dy="3.85373"/>
<feComposite in2="hardAlpha" operator="out"/>
<feColorMatrix type="matrix" values="0 0 0 0 0 0 0 0 0 0 0 0 0 0 0 0 0 0 0.25 0"/>
<feBlend mode="normal" in2="BackgroundImageFix" result="effect1_dropShadow_41_226"/>
<feBlend mode="normal" in="SourceGraphic" in2="effect1_dropShadow_41_226" result="shape"/>
</filter>
<filter id="filter4_d_41_226" x="0.0489502" y="2.10452" width="56.7168" height="252.873" filterUnits="userSpaceOnUse" color-interpolation-filters="sRGB">
<feFlood flood-opacity="0" result="BackgroundImageFix"/>
<feColorMatrix in="SourceAlpha" type="matrix" values="0 0 0 0 0 0 0 0 0 0 0 0 0 0 0 0 0 0 127 0" result="hardAlpha"/>
<feOffset dx="9.63433" dy="3.85373"/>
<feComposite in2="hardAlpha" operator="out"/>
<feColorMatrix type="matrix" values="0 0 0 0 0 0 0 0 0 0 0 0 0 0 0 0 0 0 0.25 0"/>
<feBlend mode="normal" in2="BackgroundImageFix" result="effect1_dropShadow_41_226"/>
<feBlend mode="normal" in="SourceGraphic" in2="effect1_dropShadow_41_226" result="shape"/>
</filter>
<filter id="filter5_d_41_226" x="93.5289" y="127.005" width="106.002" height="45.9442" filterUnits="userSpaceOnUse" color-interpolation-filters="sRGB">
<feFlood flood-opacity="0" result="BackgroundImageFix"/>
<feColorMatrix in="SourceAlpha" type="matrix" values="0 0 0 0 0 0 0 0 0 0 0 0 0 0 0 0 0 0 127 0" result="hardAlpha"/>
<feOffset dx="9.63433" dy="3.85373"/>
<feComposite in2="hardAlpha" operator="out"/>
<feColorMatrix type="matrix" values="0 0 0 0 0 0 0 0 0 0 0 0 0 0 0 0 0 0 0.25 0"/>
<feBlend mode="normal" in2="BackgroundImageFix" result="effect1_dropShadow_41_226"/>
<feBlend mode="normal" in="SourceGraphic" in2="effect1_dropShadow_41_226" result="shape"/>
</filter>
</defs>
</svg>
